<svg xmlns="http://www.w3.org/2000/svg" xmlns:v="https://svgstorm.com"
viewBox = "0 0 1080 1350"
width="1080"
height="1350">
<g fill="None" fill-opacity="0.0" stroke="#EFE5C3" stroke-opacity="1.00" stroke-width="0.3"><path d="
M 0.00 1350.00 
L 1080.00 1350.00
L 1080.00 0.00
L 0.00 0.00
L 0.00 1350.00
M 378.00 456.00 
C 378.25 448.27 374.99 441.45 374.00 434.00
C 380.28 432.13 395.13 434.41 393.66 442.68 C 392.19 450.94 383.84 453.30 378.00 456.00
M 610.00 509.00 
C 608.70 506.18 608.60 503.03 608.00 500.00
C 592.97 512.97 569.18 504.21 568.00 484.00 C 566.82 463.79 589.08 450.61 606.00 462.00
C 603.13 448.39 585.00 451.28 574.00 451.00
C 582.70 433.68 613.16 433.41 619.77 452.23 C 626.38 471.05 623.56 494.54 610.00 509.00
M 509.00 460.00 
C 508.31 457.22 508.12 455.77 509.00 453.00
C 516.34 429.77 565.85 436.99 550.00 463.00
C 547.86 447.00 519.85 452.35 529.75 463.25 C 539.65 474.15 553.27 468.55 557.77 484.23 C 562.27 499.91 546.86 507.62 534.00 508.00 C 521.14 508.38 503.19 500.85 512.00 485.00
C 517.04 491.69 524.69 499.16 534.69 493.69 C 544.70 488.23 532.97 479.66 525.31 477.69 C 517.64 475.73 509.85 467.95 509.00 460.00
M 661.00 487.00 
C 670.39 474.04 676.60 459.47 683.00 445.00
C 694.93 469.54 676.36 510.68 646.00 510.00
C 646.15 486.20 641.04 463.61 633.00 442.00
C 651.56 448.09 658.44 470.16 661.00 487.00
M 442.00 446.00 
C 444.69 445.52 446.30 445.33 449.00 446.00
C 451.57 446.64 454.95 446.83 456.00 450.00
C 467.41 438.78 489.22 440.71 490.78 457.22 C 492.34 473.73 489.03 492.85 504.00 500.00
C 494.91 516.09 477.04 505.91 476.07 491.93 C 475.11 477.95 479.17 452.09 460.00 457.00
C 460.33 465.29 460.84 476.17 462.00 484.00 C 463.16 491.83 463.31 502.00 473.00 502.00
C 471.20 510.33 458.03 514.95 451.25 508.75 C 444.48 502.54 445.74 490.26 444.01 481.99 C 442.27 473.73 446.82 456.47 433.00 459.00
C 437.57 477.94 435.54 502.86 419.00 515.00
C 417.81 491.63 415.94 468.44 411.00 446.00
C 416.74 445.95 424.08 444.80 427.00 451.00
C 431.77 449.03 436.44 445.89 442.00 446.00
M 297.00 464.00 
C 301.37 448.22 317.29 450.44 330.07 448.07 C 342.85 445.71 357.94 454.27 363.77 466.23 C 369.60 478.19 373.56 495.47 366.69 508.69 C 359.83 521.92 351.26 527.45 335.00 528.00 C 318.74 528.55 318.51 506.82 316.00 495.00 C 313.49 483.18 312.02 461.27 297.00 464.00
M 735.00 451.00 
C 722.47 457.53 721.78 466.14 716.02 478.02 C 710.27 489.91 723.23 509.78 732.77 495.77 C 742.31 481.76 733.12 471.37 729.00 459.00
C 771.08 463.56 752.35 531.01 714.93 517.07 C 677.51 503.13 701.17 445.21 735.00 451.00
M 252.00 521.00 
C 249.56 505.01 247.66 486.23 233.75 475.25 C 219.84 464.27 199.13 463.51 183.92 470.92 C 168.72 478.34 158.96 489.60 155.02 506.02 C 151.09 522.45 157.61 541.92 168.25 554.75 C 178.89 567.58 188.72 575.84 203.69 583.31 C 218.67 590.77 235.05 595.85 252.22 598.78 C 269.39 601.71 291.35 604.10 309.00 606.00 C 326.65 607.90 347.54 610.77 364.07 614.93 C 380.61 619.09 397.13 624.04 411.70 631.31 C 426.26 638.57 438.98 646.07 451.08 655.92 C 463.19 665.77 473.88 676.05 482.77 688.23 C 491.66 700.41 504.00 716.59 500.00 731.00
C 496.40 720.92 491.75 710.36 485.23 701.77 C 478.71 693.18 472.02 685.64 463.75 678.25 C 455.48 670.86 447.58 664.97 438.30 658.70 C 429.02 652.43 419.81 647.66 409.31 642.69 C 398.80 637.73 387.68 634.33 375.98 631.02 C 364.27 627.72 350.68 625.47 338.00 624.00 C 325.31 622.53 310.74 620.68 297.93 619.07 C 285.12 617.46 269.43 617.00 257.00 615.00 C 244.57 613.00 232.50 609.27 220.98 606.02 C 209.45 602.78 200.39 598.20 190.30 592.70 C 180.22 587.19 174.27 580.20 165.75 572.25 C 157.24 564.30 152.23 555.78 147.69 545.31 C 143.16 534.83 139.80 518.53 142.99 506.99 C 146.18 495.45 150.03 486.03 158.25 477.25 C 166.47 468.47 175.60 464.42 186.67 460.67 C 197.74 456.92 213.78 457.86 224.23 462.77 C 234.68 467.68 242.79 473.70 247.77 484.23 C 252.75 494.76 256.97 511.07 252.00 521.00
M 799.00 502.00 
C 801.16 492.52 802.24 474.16 788.00 475.00
C 789.18 495.45 778.25 517.92 759.00 526.00
C 764.41 503.72 769.84 481.40 771.00 458.00
C 780.48 461.03 786.75 466.83 796.68 464.34 C 806.61 461.85 815.57 473.40 815.00 482.00 C 814.43 490.60 807.77 499.77 799.00 502.00
M 388.00 521.00 
C 387.79 500.97 382.49 482.22 379.00 463.00
C 410.75 459.43 408.25 509.23 388.00 521.00
M 897.00 490.00 
C 897.18 493.99 893.27 495.90 894.00 500.00
C 902.69 497.83 913.92 505.42 911.00 514.00
C 911.16 514.44 911.00 515.00 911.00 515.00
C 913.35 516.47 914.43 519.39 915.00 522.00
C 905.91 526.89 896.55 532.33 886.92 535.92 C 877.30 539.52 868.48 545.02 860.75 551.75 C 853.02 558.48 845.46 564.26 837.75 570.75 C 830.05 577.24 822.33 583.19 814.75 589.75 C 807.18 596.31 799.35 602.31 791.75 608.75 C 784.16 615.19 776.69 621.63 769.25 628.25 C 761.81 634.87 753.59 640.53 746.25 647.25 C 738.91 653.97 731.18 660.30 723.75 666.75 C 716.33 673.20 708.16 679.56 700.75 685.75 C 693.34 691.94 684.81 698.97 677.25 704.25 C 669.70 709.54 659.18 721.27 653.00 717.00
C 652.24 715.22 659.10 709.75 661.25 707.25 C 663.40 704.75 667.47 700.75 670.25 697.25 C 673.03 693.75 675.81 691.93 679.75 687.75 C 683.69 683.58 682.84 684.50 688.75 678.75 C 694.66 673.00 701.65 665.58 707.75 659.75 C 713.86 653.93 721.03 648.15 726.75 641.75 C 732.47 635.35 739.92 629.54 745.75 623.75 C 751.58 617.97 750.71 618.80 755.25 614.25 C 759.78 609.70 760.57 608.78 765.00 605.00
C 772.08 597.92 779.15 590.22 786.00 583.00
C 770.83 585.30 756.67 594.35 741.78 599.78 C 726.89 605.21 712.70 614.28 697.77 619.77 C 682.84 625.26 668.92 633.74 653.92 638.92 C 638.93 644.11 622.36 654.23 607.00 652.00
C 607.93 649.83 610.05 648.89 612.00 648.00
C 665.73 620.54 720.48 592.96 776.00 569.00
C 786.35 564.53 796.63 559.48 807.00 555.00
C 815.58 551.30 826.41 546.83 832.75 539.75 C 839.09 532.68 848.01 525.57 853.75 518.75 C 859.50 511.94 870.40 503.80 875.25 498.25 C 880.09 492.69 896.36 476.03 897.00 490.00
M 539.00 555.00 
C 540.20 564.06 536.52 575.65 541.00 583.00
C 538.48 582.44 534.70 584.19 533.00 582.00
C 535.95 576.97 537.23 561.26 532.00 557.00
C 534.24 556.01 536.46 554.98 539.00 555.00
M 551.00 581.00 
C 550.38 583.61 549.13 583.11 545.00 583.00
C 547.86 576.70 549.30 561.76 544.00 557.00
C 545.91 556.03 547.90 555.41 550.00 555.00
C 552.47 556.54 551.00 563.72 551.00 567.00 C 551.00 570.28 551.82 577.57 551.00 581.00
M 604.00 555.00 
C 605.85 555.82 604.60 559.71 602.30 558.64 C 600.00 557.58 601.91 554.07 604.00 555.00
M 634.00 581.00 
C 633.19 577.59 635.06 573.33 634.00 570.00
C 632.24 566.49 629.34 566.31 627.08 570.08 C 624.83 573.86 628.95 580.58 629.00 582.00
C 629.14 586.03 620.31 583.81 622.00 582.00
C 622.00 582.00 622.78 581.30 623.00 581.00
C 623.58 576.98 621.95 570.77 623.00 567.00 C 624.05 563.23 620.79 557.15 622.00 556.00
C 622.90 555.14 625.77 555.21 627.00 555.00
C 627.00 559.00 627.00 563.00 627.00 567.00
C 640.24 558.40 636.57 577.06 640.00 583.00
C 638.12 582.47 631.87 584.48 634.00 581.00
M 432.00 567.00 
C 432.34 565.91 432.31 564.14 434.00 564.00
C 434.00 567.33 434.00 570.67 434.00 574.00
C 431.47 574.53 432.25 571.25 431.00 570.00
C 428.45 570.55 425.58 569.59 423.00 570.00
C 423.00 574.00 423.00 578.00 423.00 582.00
C 428.97 582.98 435.17 581.38 438.00 576.00
C 438.63 578.72 435.93 580.41 436.00 583.00
C 429.00 583.00 422.00 583.00 415.00 583.00
C 421.55 578.67 421.24 561.17 415.00 556.00
C 421.75 558.02 437.67 550.85 436.00 562.00
C 434.23 556.41 427.93 558.21 423.00 558.00
C 423.00 561.33 423.00 564.67 423.00 568.00
C 425.84 567.41 429.98 569.23 432.00 567.00
M 701.00 556.00 
C 701.10 562.78 700.96 570.13 699.00 576.00
C 698.88 570.74 692.62 556.60 701.00 556.00
M 465.00 565.00 
C 466.04 565.65 468.66 563.98 469.00 566.00
C 468.47 567.60 466.25 566.72 465.00 567.00
C 465.00 571.33 465.00 575.67 465.00 580.00
C 466.50 581.94 467.90 579.52 469.00 581.00
C 457.64 590.89 463.30 569.00 459.00 565.00
C 460.71 563.81 463.12 562.35 463.00 560.00
C 466.23 558.50 464.48 562.38 465.00 565.00
M 616.00 565.00 
C 617.04 565.65 619.66 563.98 620.00 566.00
C 619.47 567.60 617.25 566.72 616.00 567.00
C 616.00 571.33 616.00 575.67 616.00 580.00
C 617.50 581.94 618.90 579.52 620.00 581.00
C 608.64 590.89 614.30 569.00 610.00 565.00
C 611.71 563.81 614.12 562.35 614.00 560.00
C 617.23 558.50 615.48 562.38 616.00 565.00
M 687.00 565.00 
C 687.95 563.04 688.35 569.90 688.00 571.00
C 686.71 570.56 685.79 569.42 686.00 568.00
C 678.49 563.12 678.50 569.61 686.23 573.77 C 693.96 577.94 685.09 585.88 678.00 583.00
C 677.40 582.76 675.45 584.07 676.01 580.99 C 676.57 577.90 675.38 576.99 678.00 578.00
C 679.05 578.41 681.97 585.49 684.75 581.74 C 687.52 577.99 684.46 576.30 680.92 575.08 C 677.37 573.87 676.44 569.69 677.78 566.78 C 679.11 563.87 685.97 563.35 687.00 565.00
M 457.00 582.00 
C 454.30 584.59 452.30 583.04 450.00 581.00
C 451.72 578.73 450.73 575.66 451.00 573.00
C 443.77 573.50 443.97 581.24 449.00 583.00
C 443.98 585.44 440.13 581.93 441.78 576.78 C 443.43 571.63 451.56 575.11 450.97 568.97 C 450.39 562.84 443.50 569.65 442.00 571.00
C 440.21 564.86 450.19 562.52 453.74 566.26 C 457.30 569.99 452.29 579.18 457.00 582.00
M 490.00 565.00 
C 485.68 568.11 491.48 573.76 492.00 578.00
C 495.60 574.47 497.70 567.65 492.00 565.00
C 495.00 565.00 498.00 565.00 501.00 565.00
C 496.27 567.90 502.01 572.95 502.00 577.00
C 509.39 574.38 501.83 561.96 511.00 565.00
C 506.82 570.56 504.87 577.42 503.00 584.00
C 498.70 583.17 500.62 574.70 496.00 574.00
C 495.57 577.63 492.42 580.35 492.00 584.00
C 486.67 579.12 487.63 569.60 482.00 565.00
C 484.67 565.00 487.33 565.00 490.00 565.00
M 529.00 572.00 
C 525.00 572.00 521.00 572.00 517.00 572.00
C 515.24 579.56 525.07 583.32 529.00 577.00
C 526.38 586.98 515.11 585.19 514.00 575.00 C 512.90 564.80 528.26 560.07 529.00 572.00
M 575.00 565.00 
C 570.66 568.12 577.17 573.59 577.00 578.00
C 581.17 575.26 582.74 567.77 578.00 565.00
C 580.52 565.56 584.30 563.81 586.00 566.00
C 581.45 567.78 587.55 574.37 588.00 578.00
C 593.07 574.35 588.39 563.22 596.00 565.00
C 592.20 570.82 590.13 577.47 588.00 584.00
C 584.79 581.51 583.81 576.85 583.00 573.00
C 579.27 575.44 579.36 580.51 577.00 584.00
C 571.92 579.04 573.15 569.21 567.00 565.00
C 569.67 565.00 572.33 565.00 575.00 565.00
M 605.00 565.00 
C 606.00 570.83 602.80 578.84 607.00 583.00
C 604.48 582.44 600.70 584.19 599.00 582.00
C 602.22 580.24 602.33 568.76 599.00 567.00
C 600.26 565.20 602.80 564.79 605.00 565.00
M 665.00 583.00 
C 651.63 588.29 661.18 568.63 654.00 565.00
C 659.69 563.46 661.38 567.63 660.00 573.00 C 658.62 578.37 661.99 580.88 665.00 583.00
M 667.00 579.00 
C 666.74 575.05 666.97 570.96 667.00 567.00
C 667.02 564.59 665.46 564.94 671.00 565.00
C 672.17 570.55 668.18 579.52 674.00 582.00
C 670.37 584.56 665.83 583.31 667.00 579.00
M 467.00 725.00 
C 422.61 685.43 360.94 667.31 303.78 659.22 C 246.62 651.13 186.15 631.59 157.00 577.00
C 178.91 595.83 194.88 614.47 222.08 625.92 C 249.27 637.37 286.62 642.37 316.02 646.98 C 345.43 651.58 377.69 660.68 403.69 673.31 C 429.70 685.93 454.03 698.97 467.00 725.00
M 701.00 580.00 
C 701.49 588.46 692.46 578.70 701.00 580.00
M 74.00 1121.00 
C 81.17 1123.65 76.81 1135.34 78.00 1141.00 C 79.19 1146.66 78.47 1159.20 70.00 1158.00 C 61.52 1156.80 53.27 1159.74 45.33 1157.67 C 37.39 1155.60 42.31 1143.75 41.00 1138.00 C 39.69 1132.25 40.43 1119.04 49.00 1121.00 C 57.57 1122.96 66.03 1118.06 74.00 1121.00
M 106.00 1149.00 
C 103.19 1150.60 94.86 1150.61 92.70 1145.30 C 90.53 1140.00 96.22 1130.48 103.00 1135.00
C 103.29 1132.01 103.11 1129.17 101.00 1127.00
C 102.54 1127.37 103.40 1125.57 105.00 1126.00
C 107.64 1127.89 105.88 1135.44 106.00 1139.00 C 106.12 1142.56 107.77 1147.99 106.00 1149.00
M 114.00 1126.00 
C 114.77 1132.08 107.86 1126.31 114.00 1126.00
M 115.00 1149.00 
C 115.39 1151.03 111.33 1149.51 109.00 1150.00
C 112.44 1146.61 110.50 1141.36 111.00 1137.00
C 111.23 1135.48 110.65 1133.82 114.00 1134.00
C 114.51 1138.96 112.89 1144.47 115.00 1149.00
M 141.00 1138.00 
C 142.48 1141.63 140.95 1146.71 144.00 1150.00
C 141.48 1149.44 137.70 1151.19 136.00 1149.00
C 139.56 1146.93 137.42 1141.63 138.00 1138.00
C 136.26 1135.38 134.02 1136.41 132.10 1139.10 C 130.18 1141.79 133.66 1146.83 133.00 1149.00
C 133.39 1151.03 129.33 1149.51 127.00 1150.00
C 129.55 1147.06 129.07 1142.32 129.00 1138.00
C 123.39 1129.84 123.61 1145.40 124.00 1148.00
C 124.08 1148.52 126.46 1148.88 126.00 1150.00
C 124.07 1149.87 115.41 1150.88 120.00 1148.00
C 119.98 1143.69 121.30 1137.71 118.00 1135.00
C 122.75 1136.19 128.21 1131.59 132.00 1137.00
C 134.35 1133.56 140.67 1132.66 141.00 1138.00
M 155.00 1139.00 
C 149.31 1132.52 145.79 1137.53 154.23 1141.77 C 162.67 1146.01 143.92 1156.21 146.00 1145.00
C 147.27 1147.61 149.98 1148.57 153.00 1148.00
C 153.98 1142.40 145.97 1143.33 146.03 1137.97 C 146.08 1132.61 157.78 1131.88 155.00 1139.00
M 172.00 1148.00 
C 168.09 1148.62 165.32 1150.99 160.78 1149.22 C 156.23 1147.44 162.35 1137.91 167.00 1140.00
C 167.94 1132.54 161.83 1136.02 160.00 1139.00
C 159.23 1134.39 165.61 1132.03 168.74 1135.26 C 171.88 1138.48 167.73 1145.61 172.00 1148.00
M 180.00 1135.00 
C 177.52 1137.85 181.88 1141.68 182.00 1145.00
C 184.13 1142.15 187.11 1137.62 185.00 1134.00
C 192.30 1133.85 182.91 1146.29 181.00 1150.00
C 179.20 1144.37 177.01 1138.60 173.00 1134.00
C 175.19 1134.53 178.62 1132.86 180.00 1135.00
M 201.00 1149.00 
C 199.45 1151.00 197.51 1149.58 196.00 1149.00
C 189.78 1146.60 189.14 1137.10 196.00 1135.00
C 192.93 1138.37 194.85 1142.07 195.00 1146.00
C 196.29 1147.90 198.95 1148.03 201.00 1148.00
C 203.28 1144.01 202.97 1135.08 197.00 1135.00
C 205.24 1130.45 209.68 1147.23 201.00 1149.00
M 214.00 1148.00 
C 214.08 1148.52 216.46 1148.88 216.00 1150.00
C 214.28 1149.59 207.68 1150.97 209.00 1149.00
C 207.96 1145.58 213.15 1137.40 208.00 1135.00
C 212.47 1135.63 215.49 1132.85 219.00 1136.00
C 212.29 1135.58 211.50 1143.68 214.00 1148.00 Z"/>
</g>
<g fill="None" fill-opacity="0.0" stroke="#930E08" stroke-opacity="1.00" stroke-width="0.3"><path d="
M 378.00 456.00 
C 383.84 453.30 392.19 450.94 393.66 442.68 C 395.13 434.41 380.28 432.13 374.00 434.00
C 374.99 441.45 378.25 448.27 378.00 456.00 Z"/>
</g>
<g fill="None" fill-opacity="0.0" stroke="#920905" stroke-opacity="1.00" stroke-width="0.3"><path d="
M 610.00 509.00 
C 623.56 494.54 626.38 471.05 619.77 452.23 C 613.16 433.41 582.70 433.68 574.00 451.00
C 585.00 451.28 603.13 448.39 606.00 462.00
C 589.08 450.61 566.82 463.79 568.00 484.00 C 569.18 504.21 592.97 512.97 608.00 500.00
C 608.60 503.03 608.70 506.18 610.00 509.00
M 600.00 468.00 
C 612.34 471.75 604.90 495.64 591.78 489.22 C 578.66 482.80 586.06 463.77 600.00 468.00 Z"/>
</g>
<g fill="None" fill-opacity="0.0" stroke="#920905" stroke-opacity="1.00" stroke-width="0.3"><path d="
M 509.00 453.00 
C 508.66 455.04 508.76 457.95 509.00 460.00
C 509.85 467.95 517.64 475.73 525.31 477.69 C 532.97 479.66 544.70 488.23 534.69 493.69 C 524.69 499.16 517.04 491.69 512.00 485.00
C 503.19 500.85 521.14 508.38 534.00 508.00 C 546.86 507.62 562.27 499.91 557.77 484.23 C 553.27 468.55 539.65 474.15 529.75 463.25 C 519.85 452.35 547.86 447.00 550.00 463.00
C 565.85 436.99 516.34 429.77 509.00 453.00 Z"/>
</g>
<g fill="None" fill-opacity="0.0" stroke="#920A05" stroke-opacity="1.00" stroke-width="0.3"><path d="
M 661.00 487.00 
C 658.44 470.16 651.56 448.09 633.00 442.00
C 641.04 463.61 646.15 486.20 646.00 510.00
C 676.36 510.68 694.93 469.54 683.00 445.00
C 676.60 459.47 670.39 474.04 661.00 487.00 Z"/>
</g>
<g fill="None" fill-opacity="0.0" stroke="#920905" stroke-opacity="1.00" stroke-width="0.3"><path d="
M 449.00 446.00 
C 446.80 445.75 444.21 445.86 442.00 446.00
C 436.44 445.89 431.77 449.03 427.00 451.00
C 424.08 444.80 416.74 445.95 411.00 446.00
C 415.94 468.44 417.81 491.63 419.00 515.00
C 435.54 502.86 437.57 477.94 433.00 459.00
C 446.82 456.47 442.27 473.73 444.01 481.99 C 445.74 490.26 444.48 502.54 451.25 508.75 C 458.03 514.95 471.20 510.33 473.00 502.00
C 463.31 502.00 463.16 491.83 462.00 484.00 C 460.84 476.17 460.33 465.29 460.00 457.00
C 479.17 452.09 475.11 477.95 476.07 491.93 C 477.04 505.91 494.91 516.09 504.00 500.00
C 489.03 492.85 492.34 473.73 490.78 457.22 C 489.22 440.71 467.41 438.78 456.00 450.00
C 454.95 446.83 451.57 446.64 449.00 446.00 Z"/>
</g>
<g fill="None" fill-opacity="0.0" stroke="#C78470" stroke-opacity="1.00" stroke-width="0.3"><path d="
M 442.00 446.00 
C 444.21 445.86 446.80 445.75 449.00 446.00
C 446.30 445.33 444.69 445.52 442.00 446.00 Z"/>
</g>
<g fill="None" fill-opacity="0.0" stroke="#910804" stroke-opacity="1.00" stroke-width="0.3"><path d="
M 297.00 464.00 
C 312.02 461.27 313.49 483.18 316.00 495.00 C 318.51 506.82 318.74 528.55 335.00 528.00 C 351.26 527.45 359.83 521.92 366.69 508.69 C 373.56 495.47 369.60 478.19 363.77 466.23 C 357.94 454.27 342.85 445.71 330.07 448.07 C 317.29 450.44 301.37 448.22 297.00 464.00
M 327.00 461.00 
C 348.75 462.87 355.68 495.68 345.23 511.23 C 334.78 526.78 334.39 501.41 332.67 494.33 C 330.95 487.25 328.10 469.26 327.00 461.00 Z"/>
</g>
<g fill="None" fill-opacity="0.0" stroke="#920905" stroke-opacity="1.00" stroke-width="0.3"><path d="
M 735.00 451.00 
C 701.17 445.21 677.51 503.13 714.93 517.07 C 752.35 531.01 771.08 463.56 729.00 459.00
C 733.12 471.37 742.31 481.76 732.77 495.77 C 723.23 509.78 710.27 489.91 716.02 478.02 C 721.78 466.14 722.47 457.53 735.00 451.00 Z"/>
</g>
<g fill="None" fill-opacity="0.0" stroke="#BF6F5E" stroke-opacity="1.00" stroke-width="0.3"><path d="
M 509.00 460.00 
C 508.76 457.95 508.66 455.04 509.00 453.00
C 508.12 455.77 508.31 457.22 509.00 460.00 Z"/>
</g>
<g fill="None" fill-opacity="0.0" stroke="#C28938" stroke-opacity="1.00" stroke-width="0.3"><path d="
M 252.00 521.00 
C 256.97 511.07 252.75 494.76 247.77 484.23 C 242.79 473.70 234.68 467.68 224.23 462.77 C 213.78 457.86 197.74 456.92 186.67 460.67 C 175.60 464.42 166.47 468.47 158.25 477.25 C 150.03 486.03 146.18 495.45 142.99 506.99 C 139.80 518.53 143.16 534.83 147.69 545.31 C 152.23 555.78 157.24 564.30 165.75 572.25 C 174.27 580.20 180.22 587.19 190.30 592.70 C 200.39 598.20 209.45 602.78 220.98 606.02 C 232.50 609.27 244.57 613.00 257.00 615.00 C 269.43 617.00 285.12 617.46 297.93 619.07 C 310.74 620.68 325.31 622.53 338.00 624.00 C 350.68 625.47 364.27 627.72 375.98 631.02 C 387.68 634.33 398.80 637.73 409.31 642.69 C 419.81 647.66 429.02 652.43 438.30 658.70 C 447.58 664.97 455.48 670.86 463.75 678.25 C 472.02 685.64 478.71 693.18 485.23 701.77 C 491.75 710.36 496.40 720.92 500.00 731.00
C 504.00 716.59 491.66 700.41 482.77 688.23 C 473.88 676.05 463.19 665.77 451.08 655.92 C 438.98 646.07 426.26 638.57 411.70 631.31 C 397.13 624.04 380.61 619.09 364.07 614.93 C 347.54 610.77 326.65 607.90 309.00 606.00 C 291.35 604.10 269.39 601.71 252.22 598.78 C 235.05 595.85 218.67 590.77 203.69 583.31 C 188.72 575.84 178.89 567.58 168.25 554.75 C 157.61 541.92 151.09 522.45 155.02 506.02 C 158.96 489.60 168.72 478.34 183.92 470.92 C 199.13 463.51 219.84 464.27 233.75 475.25 C 247.66 486.23 249.56 505.01 252.00 521.00 Z"/>
</g>
<g fill="None" fill-opacity="0.0" stroke="#920B06" stroke-opacity="1.00" stroke-width="0.3"><path d="
M 799.00 502.00 
C 807.77 499.77 814.43 490.60 815.00 482.00 C 815.57 473.40 806.61 461.85 796.68 464.34 C 786.75 466.83 780.48 461.03 771.00 458.00
C 769.84 481.40 764.41 503.72 759.00 526.00
C 778.25 517.92 789.18 495.45 788.00 475.00
C 802.24 474.16 801.16 492.52 799.00 502.00 Z"/>
</g>
<g fill="None" fill-opacity="0.0" stroke="#F0E4C3" stroke-opacity="1.00" stroke-width="0.3"><path d="
M 327.00 461.00 
C 328.10 469.26 330.95 487.25 332.67 494.33 C 334.39 501.41 334.78 526.78 345.23 511.23 C 355.68 495.68 348.75 462.87 327.00 461.00 Z"/>
</g>
<g fill="None" fill-opacity="0.0" stroke="#920C07" stroke-opacity="1.00" stroke-width="0.3"><path d="
M 388.00 521.00 
C 408.25 509.23 410.75 459.43 379.00 463.00
C 382.49 482.22 387.79 500.97 388.00 521.00 Z"/>
</g>
<g fill="None" fill-opacity="0.0" stroke="#F0E4C2" stroke-opacity="1.00" stroke-width="0.3"><path d="
M 600.00 468.00 
C 586.06 463.77 578.66 482.80 591.78 489.22 C 604.90 495.64 612.34 471.75 600.00 468.00 Z"/>
</g>
<g fill="None" fill-opacity="0.0" stroke="#B67E38" stroke-opacity="1.00" stroke-width="0.3"><path d="
M 807.00 555.00 
C 808.48 555.45 809.02 559.05 810.00 560.00
C 813.47 556.58 818.99 557.47 820.00 563.00
C 820.08 563.49 820.15 564.55 820.00 565.00
C 828.72 556.28 838.42 551.57 849.08 547.08 C 859.73 542.58 871.31 537.32 881.08 532.08 C 890.84 526.83 906.11 525.05 911.00 515.00
C 911.00 515.00 911.16 514.44 911.00 514.00
C 907.53 504.39 900.80 510.82 894.31 513.31 C 887.81 515.79 881.08 519.99 875.00 523.00
C 865.18 533.52 853.37 542.68 839.00 547.00
C 852.77 530.55 868.98 515.15 885.00 501.00
C 883.28 506.33 876.81 509.18 874.00 514.00
C 877.67 510.87 882.88 506.57 885.75 502.75 C 888.62 498.93 896.62 494.59 897.00 490.00
C 896.36 476.03 880.09 492.69 875.25 498.25 C 870.40 503.80 859.50 511.94 853.75 518.75 C 848.01 525.57 839.09 532.68 832.75 539.75 C 826.41 546.83 815.58 551.30 807.00 555.00 Z"/>
</g>
<g fill="None" fill-opacity="0.0" stroke="#CCC2A5" stroke-opacity="1.00" stroke-width="0.3"><path d="
M 874.00 514.00 
C 868.34 518.84 862.79 524.38 858.00 530.00
C 863.98 528.61 869.14 524.76 875.00 523.00
C 881.08 519.99 887.81 515.79 894.31 513.31 C 900.80 510.82 907.53 504.39 911.00 514.00
C 913.92 505.42 902.69 497.83 894.00 500.00
C 893.27 495.90 897.18 493.99 897.00 490.00
C 896.62 494.59 888.62 498.93 885.75 502.75 C 882.88 506.57 877.67 510.87 874.00 514.00 Z"/>
</g>
<g fill="None" fill-opacity="0.0" stroke="#955924" stroke-opacity="1.00" stroke-width="0.3"><path d="
M 875.00 523.00 
C 869.14 524.76 863.98 528.61 858.00 530.00
C 862.79 524.38 868.34 518.84 874.00 514.00
C 876.81 509.18 883.28 506.33 885.00 501.00
C 868.98 515.15 852.77 530.55 839.00 547.00
C 853.37 542.68 865.18 533.52 875.00 523.00 Z"/>
</g>
<g fill="None" fill-opacity="0.0" stroke="#C8BFA2" stroke-opacity="1.00" stroke-width="0.3"><path d="
M 820.00 565.00 
C 812.06 572.94 803.53 580.86 795.00 588.00
C 782.99 598.06 772.62 610.37 760.75 620.75 C 748.89 631.13 738.28 643.30 726.25 653.25 C 714.22 663.20 704.46 677.10 691.77 685.77 C 679.08 694.44 670.18 711.19 656.00 717.00
C 654.86 717.47 653.74 718.73 653.00 717.00
C 659.18 721.27 669.70 709.54 677.25 704.25 C 684.81 698.97 693.34 691.94 700.75 685.75 C 708.16 679.56 716.33 673.20 723.75 666.75 C 731.18 660.30 738.91 653.97 746.25 647.25 C 753.59 640.53 761.81 634.87 769.25 628.25 C 776.69 621.63 784.16 615.19 791.75 608.75 C 799.35 602.31 807.18 596.31 814.75 589.75 C 822.33 583.19 830.05 577.24 837.75 570.75 C 845.46 564.26 853.02 558.48 860.75 551.75 C 868.48 545.02 877.30 539.52 886.92 535.92 C 896.55 532.33 905.91 526.89 915.00 522.00
C 914.43 519.39 913.35 516.47 911.00 515.00
C 906.11 525.05 890.84 526.83 881.08 532.08 C 871.31 537.32 859.73 542.58 849.08 547.08 C 838.42 551.57 828.72 556.28 820.00 565.00 Z"/>
</g>
<g fill="None" fill-opacity="0.0" stroke="#A13227" stroke-opacity="1.00" stroke-width="0.3"><path d="
M 539.00 555.00 
C 536.46 554.98 534.24 556.01 532.00 557.00
C 537.23 561.26 535.95 576.97 533.00 582.00
C 534.70 584.19 538.48 582.44 541.00 583.00
C 536.52 575.65 540.20 564.06 539.00 555.00 Z"/>
</g>
<g fill="None" fill-opacity="0.0" stroke="#95130D" stroke-opacity="1.00" stroke-width="0.3"><path d="
M 551.00 581.00 
C 551.90 573.64 548.24 563.21 550.00 555.00
C 547.90 555.41 545.91 556.03 544.00 557.00
C 549.30 561.76 547.86 576.70 545.00 583.00
C 549.13 583.11 550.38 583.61 551.00 581.00 Z"/>
</g>
<g fill="None" fill-opacity="0.0" stroke="#C98A76" stroke-opacity="1.00" stroke-width="0.3"><path d="
M 551.00 581.00 
C 551.82 577.57 551.00 570.28 551.00 567.00 C 551.00 563.72 552.47 556.54 550.00 555.00
C 548.24 563.21 551.90 573.64 551.00 581.00 Z"/>
</g>
<g fill="None" fill-opacity="0.0" stroke="#971712" stroke-opacity="1.00" stroke-width="0.3"><path d="
M 604.00 555.00 
C 601.91 554.07 600.00 557.58 602.30 558.64 C 604.60 559.71 605.85 555.82 604.00 555.00 Z"/>
</g>
<g fill="None" fill-opacity="0.0" stroke="#95150E" stroke-opacity="1.00" stroke-width="0.3"><path d="
M 622.00 556.00 
C 623.74 561.54 626.87 575.75 623.00 581.00
C 622.78 581.30 622.00 582.00 622.00 582.00
C 622.85 583.71 628.09 583.54 629.00 582.00
C 628.95 580.58 624.83 573.86 627.08 570.08 C 629.34 566.31 632.24 566.49 634.00 570.00
C 635.83 573.65 633.62 577.92 634.00 581.00
C 631.87 584.48 638.12 582.47 640.00 583.00
C 636.57 577.06 640.24 558.40 627.00 567.00
C 627.00 563.00 627.00 559.00 627.00 555.00
C 625.77 555.21 622.90 555.14 622.00 556.00 Z"/>
</g>
<g fill="None" fill-opacity="0.0" stroke="#871814" stroke-opacity="1.00" stroke-width="0.3"><path d="
M 776.00 569.00 
C 776.32 570.58 776.92 572.70 778.00 574.00
C 778.22 574.26 778.89 574.65 779.00 575.00
C 789.12 575.51 798.81 562.46 809.00 562.00
C 807.43 564.28 805.33 566.57 803.00 568.00
C 799.78 571.22 788.43 580.09 793.00 584.00
C 793.32 584.19 793.74 584.88 794.00 585.00
C 794.16 584.77 795.00 585.00 795.00 585.00
C 799.99 584.03 803.10 576.63 807.25 574.25 C 811.40 571.86 815.13 563.20 820.00 563.00
C 818.99 557.47 813.47 556.58 810.00 560.00
C 809.02 559.05 808.48 555.45 807.00 555.00
C 796.63 559.48 786.35 564.53 776.00 569.00 Z"/>
</g>
<g fill="None" fill-opacity="0.0" stroke="#A03125" stroke-opacity="1.00" stroke-width="0.3"><path d="
M 431.00 570.00 
C 431.24 574.19 432.55 565.25 432.00 567.00
C 429.98 569.23 425.84 567.41 423.00 568.00
C 423.00 564.67 423.00 561.33 423.00 558.00
C 427.93 558.21 434.23 556.41 436.00 562.00
C 437.67 550.85 421.75 558.02 415.00 556.00
C 421.24 561.17 421.55 578.67 415.00 583.00
C 422.00 583.00 429.00 583.00 436.00 583.00
C 435.93 580.41 438.63 578.72 438.00 576.00
C 435.17 581.38 428.97 582.98 423.00 582.00
C 423.00 578.00 423.00 574.00 423.00 570.00
C 425.58 569.59 428.45 570.55 431.00 570.00 Z"/>
</g>
<g fill="None" fill-opacity="0.0" stroke="#CC907A" stroke-opacity="1.00" stroke-width="0.3"><path d="
M 623.00 581.00 
C 626.87 575.75 623.74 561.54 622.00 556.00
C 620.79 557.15 624.05 563.23 623.00 567.00 C 621.95 570.77 623.58 576.98 623.00 581.00 Z"/>
</g>
<g fill="None" fill-opacity="0.0" stroke="#9B291E" stroke-opacity="1.00" stroke-width="0.3"><path d="
M 701.00 556.00 
C 692.62 556.60 698.88 570.74 699.00 576.00
C 700.96 570.13 701.10 562.78 701.00 556.00 Z"/>
</g>
<g fill="None" fill-opacity="0.0" stroke="#C5806C" stroke-opacity="1.00" stroke-width="0.3"><path d="
M 463.00 560.00 
C 464.95 561.14 463.03 563.77 465.00 565.00
C 464.48 562.38 466.23 558.50 463.00 560.00 Z"/>
</g>
<g fill="None" fill-opacity="0.0" stroke="#C5806C" stroke-opacity="1.00" stroke-width="0.3"><path d="
M 614.00 560.00 
C 615.95 561.14 614.03 563.77 616.00 565.00
C 615.48 562.38 617.23 558.50 614.00 560.00 Z"/>
</g>
<g fill="None" fill-opacity="0.0" stroke="#991E16" stroke-opacity="1.00" stroke-width="0.3"><path d="
M 465.00 580.00 
C 462.73 577.06 462.08 563.98 469.00 566.00
C 468.66 563.98 466.04 565.65 465.00 565.00
C 463.03 563.77 464.95 561.14 463.00 560.00
C 463.12 562.35 460.71 563.81 459.00 565.00
C 463.30 569.00 457.64 590.89 469.00 581.00
C 467.90 579.52 466.50 581.94 465.00 580.00 Z"/>
</g>
<g fill="None" fill-opacity="0.0" stroke="#991E16" stroke-opacity="1.00" stroke-width="0.3"><path d="
M 616.00 580.00 
C 613.73 577.06 613.08 563.98 620.00 566.00
C 619.66 563.98 617.04 565.65 616.00 565.00
C 614.03 563.77 615.95 561.14 614.00 560.00
C 614.12 562.35 611.71 563.81 610.00 565.00
C 614.30 569.00 608.64 590.89 620.00 581.00
C 618.90 579.52 617.50 581.94 616.00 580.00 Z"/>
</g>
<g fill="None" fill-opacity="0.0" stroke="#6D2927" stroke-opacity="1.00" stroke-width="0.3"><path d="
M 779.00 575.00 
C 779.15 575.49 779.18 577.53 779.00 578.00
C 786.06 574.85 793.93 572.36 801.00 569.00
C 801.87 568.09 801.85 568.52 803.00 568.00
C 805.33 566.57 807.43 564.28 809.00 562.00
C 798.81 562.46 789.12 575.51 779.00 575.00 Z"/>
</g>
<g fill="None" fill-opacity="0.0" stroke="#864843" stroke-opacity="1.00" stroke-width="0.3"><path d="
M 795.00 585.00 
C 795.18 585.17 795.07 587.72 795.00 588.00
C 803.53 580.86 812.06 572.94 820.00 565.00
C 820.15 564.55 820.08 563.49 820.00 563.00
C 815.13 563.20 811.40 571.86 807.25 574.25 C 803.10 576.63 799.99 584.03 795.00 585.00 Z"/>
</g>
<g fill="None" fill-opacity="0.0" stroke="#C17362" stroke-opacity="1.00" stroke-width="0.3"><path d="
M 432.00 567.00 
C 432.55 565.25 431.24 574.19 431.00 570.00
C 432.25 571.25 431.47 574.53 434.00 574.00
C 434.00 570.67 434.00 567.33 434.00 564.00
C 432.31 564.14 432.34 565.91 432.00 567.00 Z"/>
</g>
<g fill="None" fill-opacity="0.0" stroke="#9A251B" stroke-opacity="1.00" stroke-width="0.3"><path d="
M 678.00 578.00 
C 676.26 579.09 676.83 581.84 678.00 583.00
C 685.09 585.88 693.96 577.94 686.23 573.77 C 678.50 569.61 678.49 563.12 686.00 568.00
C 686.04 567.50 687.76 566.22 687.00 565.00
C 685.97 563.35 679.11 563.87 677.78 566.78 C 676.44 569.69 677.37 573.87 680.92 575.08 C 684.46 576.30 687.52 577.99 684.75 581.74 C 681.97 585.49 679.05 578.41 678.00 578.00 Z"/>
</g>
<g fill="None" fill-opacity="0.0" stroke="#B75E4F" stroke-opacity="1.00" stroke-width="0.3"><path d="
M 687.00 565.00 
C 687.76 566.22 686.04 567.50 686.00 568.00
C 685.79 569.42 686.71 570.56 688.00 571.00
C 688.35 569.90 687.95 563.04 687.00 565.00 Z"/>
</g>
<g fill="None" fill-opacity="0.0" stroke="#9E2B21" stroke-opacity="1.00" stroke-width="0.3"><path d="
M 457.00 582.00 
C 452.29 579.18 457.30 569.99 453.74 566.26 C 450.19 562.52 440.21 564.86 442.00 571.00
C 443.50 569.65 450.39 562.84 450.97 568.97 C 451.56 575.11 443.43 571.63 441.78 576.78 C 440.13 581.93 443.98 585.44 449.00 583.00
C 443.97 581.24 443.77 573.50 451.00 573.00
C 450.73 575.66 451.72 578.73 450.00 581.00
C 452.30 583.04 454.30 584.59 457.00 582.00 Z"/>
</g>
<g fill="None" fill-opacity="0.0" stroke="#9C281E" stroke-opacity="1.00" stroke-width="0.3"><path d="
M 490.00 565.00 
C 487.33 565.00 484.67 565.00 482.00 565.00
C 487.63 569.60 486.67 579.12 492.00 584.00
C 492.42 580.35 495.57 577.63 496.00 574.00
C 500.62 574.70 498.70 583.17 503.00 584.00
C 504.87 577.42 506.82 570.56 511.00 565.00
C 501.83 561.96 509.39 574.38 502.00 577.00
C 502.01 572.95 496.27 567.90 501.00 565.00
C 498.00 565.00 495.00 565.00 492.00 565.00
C 497.70 567.65 495.60 574.47 492.00 578.00
C 491.48 573.76 485.68 568.11 490.00 565.00 Z"/>
</g>
<g fill="None" fill-opacity="0.0" stroke="#9A2118" stroke-opacity="1.00" stroke-width="0.3"><path d="
M 529.00 572.00 
C 528.26 560.07 512.90 564.80 514.00 575.00 C 515.11 585.19 526.38 586.98 529.00 577.00
C 525.07 583.32 515.24 579.56 517.00 572.00
C 521.00 572.00 525.00 572.00 529.00 572.00
M 525.00 571.00 
C 521.50 571.67 514.95 571.24 518.26 567.26 C 521.56 563.27 525.34 567.92 525.00 571.00 Z"/>
</g>
<g fill="None" fill-opacity="0.0" stroke="#9A231A" stroke-opacity="1.00" stroke-width="0.3"><path d="
M 575.00 565.00 
C 572.33 565.00 569.67 565.00 567.00 565.00
C 573.15 569.21 571.92 579.04 577.00 584.00
C 579.36 580.51 579.27 575.44 583.00 573.00
C 583.81 576.85 584.79 581.51 588.00 584.00
C 590.13 577.47 592.20 570.82 596.00 565.00
C 588.39 563.22 593.07 574.35 588.00 578.00
C 587.55 574.37 581.45 567.78 586.00 566.00
C 584.30 563.81 580.52 565.56 578.00 565.00
C 582.74 567.77 581.17 575.26 577.00 578.00
C 577.17 573.59 570.66 568.12 575.00 565.00 Z"/>
</g>
<g fill="None" fill-opacity="0.0" stroke="#9F2E23" stroke-opacity="1.00" stroke-width="0.3"><path d="
M 605.00 565.00 
C 602.80 564.79 600.26 565.20 599.00 567.00
C 602.33 568.76 602.22 580.24 599.00 582.00
C 600.70 584.19 604.48 582.44 607.00 583.00
C 602.80 578.84 606.00 570.83 605.00 565.00 Z"/>
</g>
<g fill="None" fill-opacity="0.0" stroke="#95150E" stroke-opacity="1.00" stroke-width="0.3"><path d="
M 665.00 583.00 
C 661.99 580.88 658.62 578.37 660.00 573.00 C 661.38 567.63 659.69 563.46 654.00 565.00
C 661.18 568.63 651.63 588.29 665.00 583.00 Z"/>
</g>
<g fill="None" fill-opacity="0.0" stroke="#95120D" stroke-opacity="1.00" stroke-width="0.3"><path d="
M 667.00 567.00 
C 667.56 570.83 667.19 575.35 667.00 579.00
C 665.83 583.31 670.37 584.56 674.00 582.00
C 668.18 579.52 672.17 570.55 671.00 565.00
C 665.46 564.94 667.02 564.59 667.00 567.00 Z"/>
</g>
<g fill="None" fill-opacity="0.0" stroke="#C37B68" stroke-opacity="1.00" stroke-width="0.3"><path d="
M 465.00 580.00 
C 465.00 575.67 465.00 571.33 465.00 567.00
C 466.25 566.72 468.47 567.60 469.00 566.00
C 462.08 563.98 462.73 577.06 465.00 580.00 Z"/>
</g>
<g fill="None" fill-opacity="0.0" stroke="#E9D3B4" stroke-opacity="1.00" stroke-width="0.3"><path d="
M 525.00 571.00 
C 525.34 567.92 521.56 563.27 518.26 567.26 C 514.95 571.24 521.50 571.67 525.00 571.00 Z"/>
</g>
<g fill="None" fill-opacity="0.0" stroke="#C37B68" stroke-opacity="1.00" stroke-width="0.3"><path d="
M 616.00 580.00 
C 616.00 575.67 616.00 571.33 616.00 567.00
C 617.25 566.72 619.47 567.60 620.00 566.00
C 613.08 563.98 613.73 577.06 616.00 580.00 Z"/>
</g>
<g fill="None" fill-opacity="0.0" stroke="#C88773" stroke-opacity="1.00" stroke-width="0.3"><path d="
M 667.00 579.00 
C 667.19 575.35 667.56 570.83 667.00 567.00
C 666.97 570.96 666.74 575.05 667.00 579.00 Z"/>
</g>
<g fill="None" fill-opacity="0.0" stroke="#AA6A55" stroke-opacity="1.00" stroke-width="0.3"><path d="
M 801.00 569.00 
C 797.33 572.85 793.71 577.29 790.00 581.00
C 790.10 582.32 792.10 583.45 793.00 584.00
C 788.43 580.09 799.78 571.22 803.00 568.00
C 801.85 568.52 801.87 568.09 801.00 569.00 Z"/>
</g>
<g fill="None" fill-opacity="0.0" stroke="#CF9843" stroke-opacity="1.00" stroke-width="0.3"><path d="
M 612.00 648.00 
C 610.42 649.02 606.77 651.45 610.00 652.00
C 617.72 651.16 625.58 642.96 633.69 640.70 C 641.81 638.43 649.99 633.10 658.07 630.07 C 666.15 627.05 674.16 622.50 682.08 619.08 C 690.01 615.66 698.03 611.69 706.08 608.08 C 714.12 604.46 722.12 600.90 730.08 597.08 C 738.03 593.25 746.06 589.74 754.08 586.08 C 762.09 582.41 770.70 578.49 778.00 574.00
C 776.92 572.70 776.32 570.58 776.00 569.00
C 720.48 592.96 665.73 620.54 612.00 648.00 Z"/>
</g>
<g fill="None" fill-opacity="0.0" stroke="#C4BA9D" stroke-opacity="1.00" stroke-width="0.3"><path d="
M 779.00 578.00 
C 770.01 582.02 761.41 587.39 751.92 590.92 C 742.44 594.46 733.14 599.91 723.77 603.77 C 714.40 607.63 705.14 612.08 695.93 615.93 C 686.71 619.77 677.05 625.55 667.77 628.77 C 658.50 631.99 649.16 638.87 639.92 640.92 C 630.69 642.97 619.44 653.60 610.00 652.00
C 606.77 651.45 610.42 649.02 612.00 648.00
C 610.05 648.89 607.93 649.83 607.00 652.00
C 622.36 654.23 638.93 644.11 653.92 638.92 C 668.92 633.74 682.84 625.26 697.77 619.77 C 712.70 614.28 726.89 605.21 741.78 599.78 C 756.67 594.35 770.83 585.30 786.00 583.00
C 779.15 590.22 772.08 597.92 765.00 605.00
C 773.63 597.62 782.02 588.98 790.00 581.00
C 793.71 577.29 797.33 572.85 801.00 569.00
C 793.93 572.36 786.06 574.85 779.00 578.00 Z"/>
</g>
<g fill="None" fill-opacity="0.0" stroke="#C47D6A" stroke-opacity="1.00" stroke-width="0.3"><path d="
M 634.00 581.00 
C 633.62 577.92 635.83 573.65 634.00 570.00
C 635.06 573.33 633.19 577.59 634.00 581.00 Z"/>
</g>
<g fill="None" fill-opacity="0.0" stroke="#B0793E" stroke-opacity="1.00" stroke-width="0.3"><path d="
M 610.00 652.00 
C 619.44 653.60 630.69 642.97 639.92 640.92 C 649.16 638.87 658.50 631.99 667.77 628.77 C 677.05 625.55 686.71 619.77 695.93 615.93 C 705.14 612.08 714.40 607.63 723.77 603.77 C 733.14 599.91 742.44 594.46 751.92 590.92 C 761.41 587.39 770.01 582.02 779.00 578.00
C 779.18 577.53 779.15 575.49 779.00 575.00
C 778.89 574.65 778.22 574.26 778.00 574.00
C 770.70 578.49 762.09 582.41 754.08 586.08 C 746.06 589.74 738.03 593.25 730.08 597.08 C 722.12 600.90 714.12 604.46 706.08 608.08 C 698.03 611.69 690.01 615.66 682.08 619.08 C 674.16 622.50 666.15 627.05 658.07 630.07 C 649.99 633.10 641.81 638.43 633.69 640.70 C 625.58 642.96 617.72 651.16 610.00 652.00 Z"/>
</g>
<g fill="None" fill-opacity="0.0" stroke="#C28938" stroke-opacity="1.00" stroke-width="0.3"><path d="
M 467.00 725.00 
C 454.03 698.97 429.70 685.93 403.69 673.31 C 377.69 660.68 345.43 651.58 316.02 646.98 C 286.62 642.37 249.27 637.37 222.08 625.92 C 194.88 614.47 178.91 595.83 157.00 577.00
C 186.15 631.59 246.62 651.13 303.78 659.22 C 360.94 667.31 422.61 685.43 467.00 725.00 Z"/>
</g>
<g fill="None" fill-opacity="0.0" stroke="#C98975" stroke-opacity="1.00" stroke-width="0.3"><path d="
M 678.00 583.00 
C 676.83 581.84 676.26 579.09 678.00 578.00
C 675.38 576.99 676.57 577.90 676.01 580.99 C 675.45 584.07 677.40 582.76 678.00 583.00 Z"/>
</g>
<g fill="None" fill-opacity="0.0" stroke="#951812" stroke-opacity="1.00" stroke-width="0.3"><path d="
M 701.00 580.00 
C 692.46 578.70 701.49 588.46 701.00 580.00 Z"/>
</g>
<g fill="None" fill-opacity="0.0" stroke="#D09841" stroke-opacity="1.00" stroke-width="0.3"><path d="
M 765.00 605.00 
C 760.57 608.78 759.78 609.70 755.25 614.25 C 750.71 618.80 751.58 617.97 745.75 623.75 C 739.92 629.54 732.47 635.35 726.75 641.75 C 721.03 648.15 713.86 653.93 707.75 659.75 C 701.65 665.58 694.66 673.00 688.75 678.75 C 682.84 684.50 683.69 683.58 679.75 687.75 C 675.81 691.93 673.03 693.75 670.25 697.25 C 667.47 700.75 663.40 704.75 661.25 707.25 C 659.10 709.75 652.24 715.22 653.00 717.00
C 653.74 718.73 654.86 717.47 656.00 717.00
C 666.46 710.90 673.79 698.17 683.75 690.75 C 693.71 683.33 701.66 672.31 711.25 664.25 C 720.83 656.19 730.21 647.12 739.25 638.25 C 748.29 629.38 758.05 620.94 766.75 611.75 C 775.45 602.56 786.68 595.47 794.00 585.00
C 793.74 584.88 793.32 584.19 793.00 584.00
C 792.10 583.45 790.10 582.32 790.00 581.00
C 782.02 588.98 773.63 597.62 765.00 605.00 Z"/>
</g>
<g fill="None" fill-opacity="0.0" stroke="#D7A990" stroke-opacity="1.00" stroke-width="0.3"><path d="
M 629.00 582.00 
C 628.09 583.54 622.85 583.71 622.00 582.00
C 620.31 583.81 629.14 586.03 629.00 582.00 Z"/>
</g>
<g fill="None" fill-opacity="0.0" stroke="#B28048" stroke-opacity="1.00" stroke-width="0.3"><path d="
M 656.00 717.00 
C 670.18 711.19 679.08 694.44 691.77 685.77 C 704.46 677.10 714.22 663.20 726.25 653.25 C 738.28 643.30 748.89 631.13 760.75 620.75 C 772.62 610.37 782.99 598.06 795.00 588.00
C 795.07 587.72 795.18 585.17 795.00 585.00
C 795.00 585.00 794.16 584.77 794.00 585.00
C 786.68 595.47 775.45 602.56 766.75 611.75 C 758.05 620.94 748.29 629.38 739.25 638.25 C 730.21 647.12 720.83 656.19 711.25 664.25 C 701.66 672.31 693.71 683.33 683.75 690.75 C 673.79 698.17 666.46 710.90 656.00 717.00 Z"/>
</g>
<g fill="None" fill-opacity="0.0" stroke="#FD615D" stroke-opacity="1.00" stroke-width="0.3"><path d="
M 74.00 1121.00 
C 66.03 1118.06 57.57 1122.96 49.00 1121.00 C 40.43 1119.04 39.69 1132.25 41.00 1138.00 C 42.31 1143.75 37.39 1155.60 45.33 1157.67 C 53.27 1159.74 61.52 1156.80 70.00 1158.00 C 78.47 1159.20 79.19 1146.66 78.00 1141.00 C 76.81 1135.34 81.17 1123.65 74.00 1121.00
M 72.00 1122.00 
C 78.60 1124.00 76.85 1134.86 77.00 1140.00 C 77.15 1145.14 78.54 1156.44 70.92 1156.92 C 63.30 1157.41 54.82 1157.53 47.33 1156.67 C 39.84 1155.81 42.35 1143.59 42.00 1139.00 C 41.65 1134.41 40.76 1121.71 48.08 1122.08 C 55.39 1122.44 65.05 1119.89 72.00 1122.00 Z"/>
</g>
<g fill="None" fill-opacity="0.0" stroke="#F2E5C4" stroke-opacity="1.00" stroke-width="0.3"><path d="
M 72.00 1122.00 
C 65.05 1119.89 55.39 1122.44 48.08 1122.08 C 40.76 1121.71 41.65 1134.41 42.00 1139.00 C 42.35 1143.59 39.84 1155.81 47.33 1156.67 C 54.82 1157.53 63.30 1157.41 70.92 1156.92 C 78.54 1156.44 77.15 1145.14 77.00 1140.00 C 76.85 1134.86 78.60 1124.00 72.00 1122.00
M 73.00 1125.00 
C 75.53 1126.23 73.22 1131.46 70.32 1129.66 C 67.42 1127.86 70.18 1123.63 73.00 1125.00
M 75.00 1135.00 
C 77.03 1149.09 73.82 1154.65 60.00 1155.00 C 46.18 1155.35 41.23 1149.56 44.00 1135.00
C 51.16 1137.14 52.57 1130.14 59.00 1130.00 C 65.44 1129.86 67.89 1137.26 75.00 1135.00 Z"/>
</g>
<g fill="None" fill-opacity="0.0" stroke="#FC7A70" stroke-opacity="1.00" stroke-width="0.3"><path d="
M 73.00 1125.00 
C 70.18 1123.63 67.42 1127.86 70.32 1129.66 C 73.22 1131.46 75.53 1126.23 73.00 1125.00 Z"/>
</g>
<g fill="None" fill-opacity="0.0" stroke="#9A2319" stroke-opacity="1.00" stroke-width="0.3"><path d="
M 106.00 1149.00 
C 103.96 1141.78 105.46 1133.62 105.00 1126.00
C 103.40 1125.57 102.54 1127.37 101.00 1127.00
C 103.11 1129.17 103.29 1132.01 103.00 1135.00
C 96.22 1130.48 90.53 1140.00 92.70 1145.30 C 94.86 1150.61 103.19 1150.60 106.00 1149.00
M 101.00 1135.00 
C 105.43 1136.81 103.56 1150.09 97.78 1147.22 C 91.99 1144.35 96.03 1132.97 101.00 1135.00 Z"/>
</g>
<g fill="None" fill-opacity="0.0" stroke="#CA8C78" stroke-opacity="1.00" stroke-width="0.3"><path d="
M 106.00 1149.00 
C 107.77 1147.99 106.12 1142.56 106.00 1139.00 C 105.88 1135.44 107.64 1127.89 105.00 1126.00
C 105.46 1133.62 103.96 1141.78 106.00 1149.00 Z"/>
</g>
<g fill="None" fill-opacity="0.0" stroke="#9E2820" stroke-opacity="1.00" stroke-width="0.3"><path d="
M 114.00 1126.00 
C 107.86 1126.31 114.77 1132.08 114.00 1126.00 Z"/>
</g>
<g fill="None" fill-opacity="0.0" stroke="#FB786E" stroke-opacity="1.00" stroke-width="0.3"><path d="
M 75.00 1135.00 
C 67.89 1137.26 65.44 1129.86 59.00 1130.00 C 52.57 1130.14 51.16 1137.14 44.00 1135.00
C 41.23 1149.56 46.18 1155.35 60.00 1155.00 C 73.82 1154.65 77.03 1149.09 75.00 1135.00
M 63.00 1132.00 
C 71.22 1135.21 64.79 1150.22 56.33 1145.67 C 47.86 1141.12 53.58 1128.33 63.00 1132.00
M 68.00 1136.00 
C 74.36 1133.62 75.77 1147.99 71.25 1151.25 C 66.72 1154.50 57.48 1153.16 51.00 1153.00 C 44.52 1152.84 45.76 1140.59 46.00 1136.00
C 51.95 1135.94 50.47 1147.73 58.07 1147.93 C 65.68 1148.13 69.77 1142.58 68.00 1136.00 Z"/>
</g>
<g fill="None" fill-opacity="0.0" stroke="#F2E6C4" stroke-opacity="1.00" stroke-width="0.3"><path d="
M 63.00 1132.00 
C 53.58 1128.33 47.86 1141.12 56.33 1145.67 C 64.79 1150.22 71.22 1135.21 63.00 1132.00 Z"/>
</g>
<g fill="None" fill-opacity="0.0" stroke="#920B07" stroke-opacity="1.00" stroke-width="0.3"><path d="
M 111.00 1137.00 
C 110.91 1140.02 113.81 1145.62 111.00 1149.00
C 112.33 1149.00 113.67 1149.00 115.00 1149.00
C 112.89 1144.47 114.51 1138.96 114.00 1134.00
C 110.65 1133.82 111.23 1135.48 111.00 1137.00 Z"/>
</g>
<g fill="None" fill-opacity="0.0" stroke="#9A2218" stroke-opacity="1.00" stroke-width="0.3"><path d="
M 120.00 1148.00 
C 120.80 1149.11 123.35 1149.74 124.00 1148.00
C 123.61 1145.40 123.39 1129.84 129.00 1138.00
C 130.85 1140.69 130.36 1145.94 129.00 1149.00
C 130.33 1149.00 131.67 1149.00 133.00 1149.00
C 133.66 1146.83 130.18 1141.79 132.10 1139.10 C 134.02 1136.41 136.26 1135.38 138.00 1138.00
C 139.81 1140.72 139.38 1145.92 138.00 1149.00
C 144.50 1150.50 139.48 1141.82 141.00 1138.00
C 140.67 1132.66 134.35 1133.56 132.00 1137.00
C 128.21 1131.59 122.75 1136.19 118.00 1135.00
C 121.30 1137.71 119.98 1143.69 120.00 1148.00 Z"/>
</g>
<g fill="None" fill-opacity="0.0" stroke="#A3362A" stroke-opacity="1.00" stroke-width="0.3"><path d="
M 155.00 1139.00 
C 157.78 1131.88 146.08 1132.61 146.03 1137.97 C 145.97 1143.33 153.98 1142.40 153.00 1148.00
C 149.98 1148.57 147.27 1147.61 146.00 1145.00
C 143.92 1156.21 162.67 1146.01 154.23 1141.77 C 145.79 1137.53 149.31 1132.52 155.00 1139.00 Z"/>
</g>
<g fill="None" fill-opacity="0.0" stroke="#9E2A20" stroke-opacity="1.00" stroke-width="0.3"><path d="
M 172.00 1148.00 
C 167.73 1145.61 171.88 1138.48 168.74 1135.26 C 165.61 1132.03 159.23 1134.39 160.00 1139.00
C 161.83 1136.02 167.94 1132.54 167.00 1140.00
C 162.35 1137.91 156.23 1147.44 160.78 1149.22 C 165.32 1150.99 168.09 1148.62 172.00 1148.00
M 167.00 1141.00 
C 169.17 1153.56 155.58 1142.98 167.00 1141.00 Z"/>
</g>
<g fill="None" fill-opacity="0.0" stroke="#A3362A" stroke-opacity="1.00" stroke-width="0.3"><path d="
M 180.00 1135.00 
C 178.62 1132.86 175.19 1134.53 173.00 1134.00
C 177.01 1138.60 179.20 1144.37 181.00 1150.00
C 182.91 1146.29 192.30 1133.85 185.00 1134.00
C 187.11 1137.62 184.13 1142.15 182.00 1145.00
C 181.88 1141.68 177.52 1137.85 180.00 1135.00 Z"/>
</g>
<g fill="None" fill-opacity="0.0" stroke="#A4392C" stroke-opacity="1.00" stroke-width="0.3"><path d="
M 201.00 1148.00 
C 200.78 1148.38 201.00 1149.00 201.00 1149.00
C 209.68 1147.23 205.24 1130.45 197.00 1135.00
C 202.97 1135.08 203.28 1144.01 201.00 1148.00 Z"/>
</g>
<g fill="None" fill-opacity="0.0" stroke="#9D281F" stroke-opacity="1.00" stroke-width="0.3"><path d="
M 209.00 1149.00 
C 210.50 1148.42 213.28 1150.07 214.00 1148.00
C 211.50 1143.68 212.29 1135.58 219.00 1136.00
C 215.49 1132.85 212.47 1135.63 208.00 1135.00
C 213.15 1137.40 207.96 1145.58 209.00 1149.00 Z"/>
</g>
<g fill="None" fill-opacity="0.0" stroke="#EBD8B8" stroke-opacity="1.00" stroke-width="0.3"><path d="
M 101.00 1135.00 
C 96.03 1132.97 91.99 1144.35 97.78 1147.22 C 103.56 1150.09 105.43 1136.81 101.00 1135.00 Z"/>
</g>
<g fill="None" fill-opacity="0.0" stroke="#9E2D21" stroke-opacity="1.00" stroke-width="0.3"><path d="
M 196.00 1149.00 
C 197.15 1149.90 194.99 1145.98 195.00 1146.00
C 194.85 1142.07 192.93 1138.37 196.00 1135.00
C 189.14 1137.10 189.78 1146.60 196.00 1149.00 Z"/>
</g>
<g fill="None" fill-opacity="0.0" stroke="#F2E5C3" stroke-opacity="1.00" stroke-width="0.3"><path d="
M 68.00 1136.00 
C 69.77 1142.58 65.68 1148.13 58.07 1147.93 C 50.47 1147.73 51.95 1135.94 46.00 1136.00
C 45.76 1140.59 44.52 1152.84 51.00 1153.00 C 57.48 1153.16 66.72 1154.50 71.25 1151.25 C 75.77 1147.99 74.36 1133.62 68.00 1136.00 Z"/>
</g>
<g fill="None" fill-opacity="0.0" stroke="#C17664" stroke-opacity="1.00" stroke-width="0.3"><path d="
M 115.00 1149.00 
C 113.67 1149.00 112.33 1149.00 111.00 1149.00
C 113.81 1145.62 110.91 1140.02 111.00 1137.00
C 110.50 1141.36 112.44 1146.61 109.00 1150.00
C 111.33 1149.51 115.39 1151.03 115.00 1149.00 Z"/>
</g>
<g fill="None" fill-opacity="0.0" stroke="#C37967" stroke-opacity="1.00" stroke-width="0.3"><path d="
M 133.00 1149.00 
C 131.67 1149.00 130.33 1149.00 129.00 1149.00
C 130.36 1145.94 130.85 1140.69 129.00 1138.00
C 129.07 1142.32 129.55 1147.06 127.00 1150.00
C 129.33 1149.51 133.39 1151.03 133.00 1149.00 Z"/>
</g>
<g fill="None" fill-opacity="0.0" stroke="#CB8D78" stroke-opacity="1.00" stroke-width="0.3"><path d="
M 141.00 1138.00 
C 139.48 1141.82 144.50 1150.50 138.00 1149.00
C 139.38 1145.92 139.81 1140.72 138.00 1138.00
C 137.42 1141.63 139.56 1146.93 136.00 1149.00
C 137.70 1151.19 141.48 1149.44 144.00 1150.00
C 140.95 1146.71 142.48 1141.63 141.00 1138.00 Z"/>
</g>
<g fill="None" fill-opacity="0.0" stroke="#ECD9B9" stroke-opacity="1.00" stroke-width="0.3"><path d="
M 167.00 1141.00 
C 155.58 1142.98 169.17 1153.56 167.00 1141.00 Z"/>
</g>
<g fill="None" fill-opacity="0.0" stroke="#BC6958" stroke-opacity="1.00" stroke-width="0.3"><path d="
M 196.00 1149.00 
C 197.51 1149.58 199.45 1151.00 201.00 1149.00
C 201.00 1149.00 200.78 1148.38 201.00 1148.00
C 198.95 1148.03 196.29 1147.90 195.00 1146.00
C 194.99 1145.98 197.15 1149.90 196.00 1149.00 Z"/>
</g>
<g fill="None" fill-opacity="0.0" stroke="#C5806D" stroke-opacity="1.00" stroke-width="0.3"><path d="
M 124.00 1148.00 
C 123.35 1149.74 120.80 1149.11 120.00 1148.00
C 115.41 1150.88 124.07 1149.87 126.00 1150.00
C 126.46 1148.88 124.08 1148.52 124.00 1148.00 Z"/>
</g>
<g fill="None" fill-opacity="0.0" stroke="#C6826F" stroke-opacity="1.00" stroke-width="0.3"><path d="
M 209.00 1149.00 
C 207.68 1150.97 214.28 1149.59 216.00 1150.00
C 216.46 1148.88 214.08 1148.52 214.00 1148.00
C 213.28 1150.07 210.50 1148.42 209.00 1149.00 Z"/>
</g>
<g fill="#EFE5C3" fill-opacity="1.00" stroke="None"><path d="
M 0.00 1350.00 
L 1080.00 1350.00
L 1080.00 0.00
L 0.00 0.00
L 0.00 1350.00 Z"/>
</g>
<g fill="#930E08" fill-opacity="1.00" stroke="None"><path d="
M 378.00 456.00 
C 383.84 453.30 392.19 450.94 393.66 442.68 C 395.13 434.41 380.28 432.13 374.00 434.00
C 374.99 441.45 378.25 448.27 378.00 456.00 Z"/>
</g>
<g fill="#920905" fill-opacity="1.00" stroke="None"><path d="
M 610.00 509.00 
C 623.56 494.54 626.38 471.05 619.77 452.23 C 613.16 433.41 582.70 433.68 574.00 451.00
C 585.00 451.28 603.13 448.39 606.00 462.00
C 589.08 450.61 566.82 463.79 568.00 484.00 C 569.18 504.21 592.97 512.97 608.00 500.00
C 608.60 503.03 608.70 506.18 610.00 509.00 Z"/>
</g>
<g fill="#920905" fill-opacity="1.00" stroke="None"><path d="
M 509.00 453.00 
C 508.66 455.04 508.76 457.95 509.00 460.00
C 509.85 467.95 517.64 475.73 525.31 477.69 C 532.97 479.66 544.70 488.23 534.69 493.69 C 524.69 499.16 517.04 491.69 512.00 485.00
C 503.19 500.85 521.14 508.38 534.00 508.00 C 546.86 507.62 562.27 499.91 557.77 484.23 C 553.27 468.55 539.65 474.15 529.75 463.25 C 519.85 452.35 547.86 447.00 550.00 463.00
C 565.85 436.99 516.34 429.77 509.00 453.00 Z"/>
</g>
<g fill="#920A05" fill-opacity="1.00" stroke="None"><path d="
M 661.00 487.00 
C 658.44 470.16 651.56 448.09 633.00 442.00
C 641.04 463.61 646.15 486.20 646.00 510.00
C 676.36 510.68 694.93 469.54 683.00 445.00
C 676.60 459.47 670.39 474.04 661.00 487.00 Z"/>
</g>
<g fill="#920905" fill-opacity="1.00" stroke="None"><path d="
M 449.00 446.00 
C 446.80 445.75 444.21 445.86 442.00 446.00
C 436.44 445.89 431.77 449.03 427.00 451.00
C 424.08 444.80 416.74 445.95 411.00 446.00
C 415.94 468.44 417.81 491.63 419.00 515.00
C 435.54 502.86 437.57 477.94 433.00 459.00
C 446.82 456.47 442.27 473.73 444.01 481.99 C 445.74 490.26 444.48 502.54 451.25 508.75 C 458.03 514.95 471.20 510.33 473.00 502.00
C 463.31 502.00 463.16 491.83 462.00 484.00 C 460.84 476.17 460.33 465.29 460.00 457.00
C 479.17 452.09 475.11 477.95 476.07 491.93 C 477.04 505.91 494.91 516.09 504.00 500.00
C 489.03 492.85 492.34 473.73 490.78 457.22 C 489.22 440.71 467.41 438.78 456.00 450.00
C 454.95 446.83 451.57 446.64 449.00 446.00 Z"/>
</g>
<g fill="#C78470" fill-opacity="1.00" stroke="None"><path d="
M 442.00 446.00 
C 444.21 445.86 446.80 445.75 449.00 446.00
C 446.30 445.33 444.69 445.52 442.00 446.00 Z"/>
</g>
<g fill="#910804" fill-opacity="1.00" stroke="None"><path d="
M 297.00 464.00 
C 312.02 461.27 313.49 483.18 316.00 495.00 C 318.51 506.82 318.74 528.55 335.00 528.00 C 351.26 527.45 359.83 521.92 366.69 508.69 C 373.56 495.47 369.60 478.19 363.77 466.23 C 357.94 454.27 342.85 445.71 330.07 448.07 C 317.29 450.44 301.37 448.22 297.00 464.00 Z"/>
</g>
<g fill="#920905" fill-opacity="1.00" stroke="None"><path d="
M 735.00 451.00 
C 701.17 445.21 677.51 503.13 714.93 517.07 C 752.35 531.01 771.08 463.56 729.00 459.00
C 733.12 471.37 742.31 481.76 732.77 495.77 C 723.23 509.78 710.27 489.91 716.02 478.02 C 721.78 466.14 722.47 457.53 735.00 451.00 Z"/>
</g>
<g fill="#BF6F5E" fill-opacity="1.00" stroke="None"><path d="
M 509.00 460.00 
C 508.76 457.95 508.66 455.04 509.00 453.00
C 508.12 455.77 508.31 457.22 509.00 460.00 Z"/>
</g>
<g fill="#C28938" fill-opacity="1.00" stroke="None"><path d="
M 252.00 521.00 
C 256.97 511.07 252.75 494.76 247.77 484.23 C 242.79 473.70 234.68 467.68 224.23 462.77 C 213.78 457.86 197.74 456.92 186.67 460.67 C 175.60 464.42 166.47 468.47 158.25 477.25 C 150.03 486.03 146.18 495.45 142.99 506.99 C 139.80 518.53 143.16 534.83 147.69 545.31 C 152.23 555.78 157.24 564.30 165.75 572.25 C 174.27 580.20 180.22 587.19 190.30 592.70 C 200.39 598.20 209.45 602.78 220.98 606.02 C 232.50 609.27 244.57 613.00 257.00 615.00 C 269.43 617.00 285.12 617.46 297.93 619.07 C 310.74 620.68 325.31 622.53 338.00 624.00 C 350.68 625.47 364.27 627.72 375.98 631.02 C 387.68 634.33 398.80 637.73 409.31 642.69 C 419.81 647.66 429.02 652.43 438.30 658.70 C 447.58 664.97 455.48 670.86 463.75 678.25 C 472.02 685.64 478.71 693.18 485.23 701.77 C 491.75 710.36 496.40 720.92 500.00 731.00
C 504.00 716.59 491.66 700.41 482.77 688.23 C 473.88 676.05 463.19 665.77 451.08 655.92 C 438.98 646.07 426.26 638.57 411.70 631.31 C 397.13 624.04 380.61 619.09 364.07 614.93 C 347.54 610.77 326.65 607.90 309.00 606.00 C 291.35 604.10 269.39 601.71 252.22 598.78 C 235.05 595.85 218.67 590.77 203.69 583.31 C 188.72 575.84 178.89 567.58 168.25 554.75 C 157.61 541.92 151.09 522.45 155.02 506.02 C 158.96 489.60 168.72 478.34 183.92 470.92 C 199.13 463.51 219.84 464.27 233.75 475.25 C 247.66 486.23 249.56 505.01 252.00 521.00 Z"/>
</g>
<g fill="#920B06" fill-opacity="1.00" stroke="None"><path d="
M 799.00 502.00 
C 807.77 499.77 814.43 490.60 815.00 482.00 C 815.57 473.40 806.61 461.85 796.68 464.34 C 786.75 466.83 780.48 461.03 771.00 458.00
C 769.84 481.40 764.41 503.72 759.00 526.00
C 778.25 517.92 789.18 495.45 788.00 475.00
C 802.24 474.16 801.16 492.52 799.00 502.00 Z"/>
</g>
<g fill="#F0E4C3" fill-opacity="1.00" stroke="None"><path d="
M 327.00 461.00 
C 328.10 469.26 330.95 487.25 332.67 494.33 C 334.39 501.41 334.78 526.78 345.23 511.23 C 355.68 495.68 348.75 462.87 327.00 461.00 Z"/>
</g>
<g fill="#920C07" fill-opacity="1.00" stroke="None"><path d="
M 388.00 521.00 
C 408.25 509.23 410.75 459.43 379.00 463.00
C 382.49 482.22 387.79 500.97 388.00 521.00 Z"/>
</g>
<g fill="#F0E4C2" fill-opacity="1.00" stroke="None"><path d="
M 600.00 468.00 
C 586.06 463.77 578.66 482.80 591.78 489.22 C 604.90 495.64 612.34 471.75 600.00 468.00 Z"/>
</g>
<g fill="#B67E38" fill-opacity="1.00" stroke="None"><path d="
M 807.00 555.00 
C 808.48 555.45 809.02 559.05 810.00 560.00
C 813.47 556.58 818.99 557.47 820.00 563.00
C 820.08 563.49 820.15 564.55 820.00 565.00
C 828.72 556.28 838.42 551.57 849.08 547.08 C 859.73 542.58 871.31 537.32 881.08 532.08 C 890.84 526.83 906.11 525.05 911.00 515.00
C 911.00 515.00 911.16 514.44 911.00 514.00
C 907.53 504.39 900.80 510.82 894.31 513.31 C 887.81 515.79 881.08 519.99 875.00 523.00
C 865.18 533.52 853.37 542.68 839.00 547.00
C 852.77 530.55 868.98 515.15 885.00 501.00
C 883.28 506.33 876.81 509.18 874.00 514.00
C 877.67 510.87 882.88 506.57 885.75 502.75 C 888.62 498.93 896.62 494.59 897.00 490.00
C 896.36 476.03 880.09 492.69 875.25 498.25 C 870.40 503.80 859.50 511.94 853.75 518.75 C 848.01 525.57 839.09 532.68 832.75 539.75 C 826.41 546.83 815.58 551.30 807.00 555.00 Z"/>
</g>
<g fill="#CCC2A5" fill-opacity="1.00" stroke="None"><path d="
M 874.00 514.00 
C 868.34 518.84 862.79 524.38 858.00 530.00
C 863.98 528.61 869.14 524.76 875.00 523.00
C 881.08 519.99 887.81 515.79 894.31 513.31 C 900.80 510.82 907.53 504.39 911.00 514.00
C 913.92 505.42 902.69 497.83 894.00 500.00
C 893.27 495.90 897.18 493.99 897.00 490.00
C 896.62 494.59 888.62 498.93 885.75 502.75 C 882.88 506.57 877.67 510.87 874.00 514.00 Z"/>
</g>
<g fill="#955924" fill-opacity="1.00" stroke="None"><path d="
M 875.00 523.00 
C 869.14 524.76 863.98 528.61 858.00 530.00
C 862.79 524.38 868.34 518.84 874.00 514.00
C 876.81 509.18 883.28 506.33 885.00 501.00
C 868.98 515.15 852.77 530.55 839.00 547.00
C 853.37 542.68 865.18 533.52 875.00 523.00 Z"/>
</g>
<g fill="#C8BFA2" fill-opacity="1.00" stroke="None"><path d="
M 820.00 565.00 
C 812.06 572.94 803.53 580.86 795.00 588.00
C 782.99 598.06 772.62 610.37 760.75 620.75 C 748.89 631.13 738.28 643.30 726.25 653.25 C 714.22 663.20 704.46 677.10 691.77 685.77 C 679.08 694.44 670.18 711.19 656.00 717.00
C 654.86 717.47 653.74 718.73 653.00 717.00
C 659.18 721.27 669.70 709.54 677.25 704.25 C 684.81 698.97 693.34 691.94 700.75 685.75 C 708.16 679.56 716.33 673.20 723.75 666.75 C 731.18 660.30 738.91 653.97 746.25 647.25 C 753.59 640.53 761.81 634.87 769.25 628.25 C 776.69 621.63 784.16 615.19 791.75 608.75 C 799.35 602.31 807.18 596.31 814.75 589.75 C 822.33 583.19 830.05 577.24 837.75 570.75 C 845.46 564.26 853.02 558.48 860.75 551.75 C 868.48 545.02 877.30 539.52 886.92 535.92 C 896.55 532.33 905.91 526.89 915.00 522.00
C 914.43 519.39 913.35 516.47 911.00 515.00
C 906.11 525.05 890.84 526.83 881.08 532.08 C 871.31 537.32 859.73 542.58 849.08 547.08 C 838.42 551.57 828.72 556.28 820.00 565.00 Z"/>
</g>
<g fill="#A13227" fill-opacity="1.00" stroke="None"><path d="
M 539.00 555.00 
C 536.46 554.98 534.24 556.01 532.00 557.00
C 537.23 561.26 535.95 576.97 533.00 582.00
C 534.70 584.19 538.48 582.44 541.00 583.00
C 536.52 575.65 540.20 564.06 539.00 555.00 Z"/>
</g>
<g fill="#95130D" fill-opacity="1.00" stroke="None"><path d="
M 551.00 581.00 
C 551.90 573.64 548.24 563.21 550.00 555.00
C 547.90 555.41 545.91 556.03 544.00 557.00
C 549.30 561.76 547.86 576.70 545.00 583.00
C 549.13 583.11 550.38 583.61 551.00 581.00 Z"/>
</g>
<g fill="#C98A76" fill-opacity="1.00" stroke="None"><path d="
M 551.00 581.00 
C 551.82 577.57 551.00 570.28 551.00 567.00 C 551.00 563.72 552.47 556.54 550.00 555.00
C 548.24 563.21 551.90 573.64 551.00 581.00 Z"/>
</g>
<g fill="#971712" fill-opacity="1.00" stroke="None"><path d="
M 604.00 555.00 
C 601.91 554.07 600.00 557.58 602.30 558.64 C 604.60 559.71 605.85 555.82 604.00 555.00 Z"/>
</g>
<g fill="#95150E" fill-opacity="1.00" stroke="None"><path d="
M 622.00 556.00 
C 623.74 561.54 626.87 575.75 623.00 581.00
C 622.78 581.30 622.00 582.00 622.00 582.00
C 622.85 583.71 628.09 583.54 629.00 582.00
C 628.95 580.58 624.83 573.86 627.08 570.08 C 629.34 566.31 632.24 566.49 634.00 570.00
C 635.83 573.65 633.62 577.92 634.00 581.00
C 631.87 584.48 638.12 582.47 640.00 583.00
C 636.57 577.06 640.24 558.40 627.00 567.00
C 627.00 563.00 627.00 559.00 627.00 555.00
C 625.77 555.21 622.90 555.14 622.00 556.00 Z"/>
</g>
<g fill="#871814" fill-opacity="1.00" stroke="None"><path d="
M 776.00 569.00 
C 776.32 570.58 776.92 572.70 778.00 574.00
C 778.22 574.26 778.89 574.65 779.00 575.00
C 789.12 575.51 798.81 562.46 809.00 562.00
C 807.43 564.28 805.33 566.57 803.00 568.00
C 799.78 571.22 788.43 580.09 793.00 584.00
C 793.32 584.19 793.74 584.88 794.00 585.00
C 794.16 584.77 795.00 585.00 795.00 585.00
C 799.99 584.03 803.10 576.63 807.25 574.25 C 811.40 571.86 815.13 563.20 820.00 563.00
C 818.99 557.47 813.47 556.58 810.00 560.00
C 809.02 559.05 808.48 555.45 807.00 555.00
C 796.63 559.48 786.35 564.53 776.00 569.00 Z"/>
</g>
<g fill="#A03125" fill-opacity="1.00" stroke="None"><path d="
M 431.00 570.00 
C 431.24 574.19 432.55 565.25 432.00 567.00
C 429.98 569.23 425.84 567.41 423.00 568.00
C 423.00 564.67 423.00 561.33 423.00 558.00
C 427.93 558.21 434.23 556.41 436.00 562.00
C 437.67 550.85 421.75 558.02 415.00 556.00
C 421.24 561.17 421.55 578.67 415.00 583.00
C 422.00 583.00 429.00 583.00 436.00 583.00
C 435.93 580.41 438.63 578.72 438.00 576.00
C 435.17 581.38 428.97 582.98 423.00 582.00
C 423.00 578.00 423.00 574.00 423.00 570.00
C 425.58 569.59 428.45 570.55 431.00 570.00 Z"/>
</g>
<g fill="#CC907A" fill-opacity="1.00" stroke="None"><path d="
M 623.00 581.00 
C 626.87 575.75 623.74 561.54 622.00 556.00
C 620.79 557.15 624.05 563.23 623.00 567.00 C 621.95 570.77 623.58 576.98 623.00 581.00 Z"/>
</g>
<g fill="#9B291E" fill-opacity="1.00" stroke="None"><path d="
M 701.00 556.00 
C 692.62 556.60 698.88 570.74 699.00 576.00
C 700.96 570.13 701.10 562.78 701.00 556.00 Z"/>
</g>
<g fill="#C5806C" fill-opacity="1.00" stroke="None"><path d="
M 463.00 560.00 
C 464.95 561.14 463.03 563.77 465.00 565.00
C 464.48 562.38 466.23 558.50 463.00 560.00 Z"/>
</g>
<g fill="#C5806C" fill-opacity="1.00" stroke="None"><path d="
M 614.00 560.00 
C 615.95 561.14 614.03 563.77 616.00 565.00
C 615.48 562.38 617.23 558.50 614.00 560.00 Z"/>
</g>
<g fill="#991E16" fill-opacity="1.00" stroke="None"><path d="
M 465.00 580.00 
C 462.73 577.06 462.08 563.98 469.00 566.00
C 468.66 563.98 466.04 565.65 465.00 565.00
C 463.03 563.77 464.95 561.14 463.00 560.00
C 463.12 562.35 460.71 563.81 459.00 565.00
C 463.30 569.00 457.64 590.89 469.00 581.00
C 467.90 579.52 466.50 581.94 465.00 580.00 Z"/>
</g>
<g fill="#991E16" fill-opacity="1.00" stroke="None"><path d="
M 616.00 580.00 
C 613.73 577.06 613.08 563.98 620.00 566.00
C 619.66 563.98 617.04 565.65 616.00 565.00
C 614.03 563.77 615.95 561.14 614.00 560.00
C 614.12 562.35 611.71 563.81 610.00 565.00
C 614.30 569.00 608.64 590.89 620.00 581.00
C 618.90 579.52 617.50 581.94 616.00 580.00 Z"/>
</g>
<g fill="#6D2927" fill-opacity="1.00" stroke="None"><path d="
M 779.00 575.00 
C 779.15 575.49 779.18 577.53 779.00 578.00
C 786.06 574.85 793.93 572.36 801.00 569.00
C 801.87 568.09 801.85 568.52 803.00 568.00
C 805.33 566.57 807.43 564.28 809.00 562.00
C 798.81 562.46 789.12 575.51 779.00 575.00 Z"/>
</g>
<g fill="#864843" fill-opacity="1.00" stroke="None"><path d="
M 795.00 585.00 
C 795.18 585.17 795.07 587.72 795.00 588.00
C 803.53 580.86 812.06 572.94 820.00 565.00
C 820.15 564.55 820.08 563.49 820.00 563.00
C 815.13 563.20 811.40 571.86 807.25 574.25 C 803.10 576.63 799.99 584.03 795.00 585.00 Z"/>
</g>
<g fill="#C17362" fill-opacity="1.00" stroke="None"><path d="
M 432.00 567.00 
C 432.55 565.25 431.24 574.19 431.00 570.00
C 432.25 571.25 431.47 574.53 434.00 574.00
C 434.00 570.67 434.00 567.33 434.00 564.00
C 432.31 564.14 432.34 565.91 432.00 567.00 Z"/>
</g>
<g fill="#9A251B" fill-opacity="1.00" stroke="None"><path d="
M 678.00 578.00 
C 676.26 579.09 676.83 581.84 678.00 583.00
C 685.09 585.88 693.96 577.94 686.23 573.77 C 678.50 569.61 678.49 563.12 686.00 568.00
C 686.04 567.50 687.76 566.22 687.00 565.00
C 685.97 563.35 679.11 563.87 677.78 566.78 C 676.44 569.69 677.37 573.87 680.92 575.08 C 684.46 576.30 687.52 577.99 684.75 581.74 C 681.97 585.49 679.05 578.41 678.00 578.00 Z"/>
</g>
<g fill="#B75E4F" fill-opacity="1.00" stroke="None"><path d="
M 687.00 565.00 
C 687.76 566.22 686.04 567.50 686.00 568.00
C 685.79 569.42 686.71 570.56 688.00 571.00
C 688.35 569.90 687.95 563.04 687.00 565.00 Z"/>
</g>
<g fill="#9E2B21" fill-opacity="1.00" stroke="None"><path d="
M 457.00 582.00 
C 452.29 579.18 457.30 569.99 453.74 566.26 C 450.19 562.52 440.21 564.86 442.00 571.00
C 443.50 569.65 450.39 562.84 450.97 568.97 C 451.56 575.11 443.43 571.63 441.78 576.78 C 440.13 581.93 443.98 585.44 449.00 583.00
C 443.97 581.24 443.77 573.50 451.00 573.00
C 450.73 575.66 451.72 578.73 450.00 581.00
C 452.30 583.04 454.30 584.59 457.00 582.00 Z"/>
</g>
<g fill="#9C281E" fill-opacity="1.00" stroke="None"><path d="
M 490.00 565.00 
C 487.33 565.00 484.67 565.00 482.00 565.00
C 487.63 569.60 486.67 579.12 492.00 584.00
C 492.42 580.35 495.57 577.63 496.00 574.00
C 500.62 574.70 498.70 583.17 503.00 584.00
C 504.87 577.42 506.82 570.56 511.00 565.00
C 501.83 561.96 509.39 574.38 502.00 577.00
C 502.01 572.95 496.27 567.90 501.00 565.00
C 498.00 565.00 495.00 565.00 492.00 565.00
C 497.70 567.65 495.60 574.47 492.00 578.00
C 491.48 573.76 485.68 568.11 490.00 565.00 Z"/>
</g>
<g fill="#9A2118" fill-opacity="1.00" stroke="None"><path d="
M 529.00 572.00 
C 528.26 560.07 512.90 564.80 514.00 575.00 C 515.11 585.19 526.38 586.98 529.00 577.00
C 525.07 583.32 515.24 579.56 517.00 572.00
C 521.00 572.00 525.00 572.00 529.00 572.00 Z"/>
</g>
<g fill="#9A231A" fill-opacity="1.00" stroke="None"><path d="
M 575.00 565.00 
C 572.33 565.00 569.67 565.00 567.00 565.00
C 573.15 569.21 571.92 579.04 577.00 584.00
C 579.36 580.51 579.27 575.44 583.00 573.00
C 583.81 576.85 584.79 581.51 588.00 584.00
C 590.13 577.47 592.20 570.82 596.00 565.00
C 588.39 563.22 593.07 574.35 588.00 578.00
C 587.55 574.37 581.45 567.78 586.00 566.00
C 584.30 563.81 580.52 565.56 578.00 565.00
C 582.74 567.77 581.17 575.26 577.00 578.00
C 577.17 573.59 570.66 568.12 575.00 565.00 Z"/>
</g>
<g fill="#9F2E23" fill-opacity="1.00" stroke="None"><path d="
M 605.00 565.00 
C 602.80 564.79 600.26 565.20 599.00 567.00
C 602.33 568.76 602.22 580.24 599.00 582.00
C 600.70 584.19 604.48 582.44 607.00 583.00
C 602.80 578.84 606.00 570.83 605.00 565.00 Z"/>
</g>
<g fill="#95150E" fill-opacity="1.00" stroke="None"><path d="
M 665.00 583.00 
C 661.99 580.88 658.62 578.37 660.00 573.00 C 661.38 567.63 659.69 563.46 654.00 565.00
C 661.18 568.63 651.63 588.29 665.00 583.00 Z"/>
</g>
<g fill="#95120D" fill-opacity="1.00" stroke="None"><path d="
M 667.00 567.00 
C 667.56 570.83 667.19 575.35 667.00 579.00
C 665.83 583.31 670.37 584.56 674.00 582.00
C 668.18 579.52 672.17 570.55 671.00 565.00
C 665.46 564.94 667.02 564.59 667.00 567.00 Z"/>
</g>
<g fill="#C37B68" fill-opacity="1.00" stroke="None"><path d="
M 465.00 580.00 
C 465.00 575.67 465.00 571.33 465.00 567.00
C 466.25 566.72 468.47 567.60 469.00 566.00
C 462.08 563.98 462.73 577.06 465.00 580.00 Z"/>
</g>
<g fill="#E9D3B4" fill-opacity="1.00" stroke="None"><path d="
M 525.00 571.00 
C 525.34 567.92 521.56 563.27 518.26 567.26 C 514.95 571.24 521.50 571.67 525.00 571.00 Z"/>
</g>
<g fill="#C37B68" fill-opacity="1.00" stroke="None"><path d="
M 616.00 580.00 
C 616.00 575.67 616.00 571.33 616.00 567.00
C 617.25 566.72 619.47 567.60 620.00 566.00
C 613.08 563.98 613.73 577.06 616.00 580.00 Z"/>
</g>
<g fill="#C88773" fill-opacity="1.00" stroke="None"><path d="
M 667.00 579.00 
C 667.19 575.35 667.56 570.83 667.00 567.00
C 666.97 570.96 666.74 575.05 667.00 579.00 Z"/>
</g>
<g fill="#AA6A55" fill-opacity="1.00" stroke="None"><path d="
M 801.00 569.00 
C 797.33 572.85 793.71 577.29 790.00 581.00
C 790.10 582.32 792.10 583.45 793.00 584.00
C 788.43 580.09 799.78 571.22 803.00 568.00
C 801.85 568.52 801.87 568.09 801.00 569.00 Z"/>
</g>
<g fill="#CF9843" fill-opacity="1.00" stroke="None"><path d="
M 612.00 648.00 
C 610.42 649.02 606.77 651.45 610.00 652.00
C 617.72 651.16 625.58 642.96 633.69 640.70 C 641.81 638.43 649.99 633.10 658.07 630.07 C 666.15 627.05 674.16 622.50 682.08 619.08 C 690.01 615.66 698.03 611.69 706.08 608.08 C 714.12 604.46 722.12 600.90 730.08 597.08 C 738.03 593.25 746.06 589.74 754.08 586.08 C 762.09 582.41 770.70 578.49 778.00 574.00
C 776.92 572.70 776.32 570.58 776.00 569.00
C 720.48 592.96 665.73 620.54 612.00 648.00 Z"/>
</g>
<g fill="#C4BA9D" fill-opacity="1.00" stroke="None"><path d="
M 779.00 578.00 
C 770.01 582.02 761.41 587.39 751.92 590.92 C 742.44 594.46 733.14 599.91 723.77 603.77 C 714.40 607.63 705.14 612.08 695.93 615.93 C 686.71 619.77 677.05 625.55 667.77 628.77 C 658.50 631.99 649.16 638.87 639.92 640.92 C 630.69 642.97 619.44 653.60 610.00 652.00
C 606.77 651.45 610.42 649.02 612.00 648.00
C 610.05 648.89 607.93 649.83 607.00 652.00
C 622.36 654.23 638.93 644.11 653.92 638.92 C 668.92 633.74 682.84 625.26 697.77 619.77 C 712.70 614.28 726.89 605.21 741.78 599.78 C 756.67 594.35 770.83 585.30 786.00 583.00
C 779.15 590.22 772.08 597.92 765.00 605.00
C 773.63 597.62 782.02 588.98 790.00 581.00
C 793.71 577.29 797.33 572.85 801.00 569.00
C 793.93 572.36 786.06 574.85 779.00 578.00 Z"/>
</g>
<g fill="#C47D6A" fill-opacity="1.00" stroke="None"><path d="
M 634.00 581.00 
C 633.62 577.92 635.83 573.65 634.00 570.00
C 635.06 573.33 633.19 577.59 634.00 581.00 Z"/>
</g>
<g fill="#B0793E" fill-opacity="1.00" stroke="None"><path d="
M 610.00 652.00 
C 619.44 653.60 630.69 642.97 639.92 640.92 C 649.16 638.87 658.50 631.99 667.77 628.77 C 677.05 625.55 686.71 619.77 695.93 615.93 C 705.14 612.08 714.40 607.63 723.77 603.77 C 733.14 599.91 742.44 594.46 751.92 590.92 C 761.41 587.39 770.01 582.02 779.00 578.00
C 779.18 577.53 779.15 575.49 779.00 575.00
C 778.89 574.65 778.22 574.26 778.00 574.00
C 770.70 578.49 762.09 582.41 754.08 586.08 C 746.06 589.74 738.03 593.25 730.08 597.08 C 722.12 600.90 714.12 604.46 706.08 608.08 C 698.03 611.69 690.01 615.66 682.08 619.08 C 674.16 622.50 666.15 627.05 658.07 630.07 C 649.99 633.10 641.81 638.43 633.69 640.70 C 625.58 642.96 617.72 651.16 610.00 652.00 Z"/>
</g>
<g fill="#C28938" fill-opacity="1.00" stroke="None"><path d="
M 467.00 725.00 
C 454.03 698.97 429.70 685.93 403.69 673.31 C 377.69 660.68 345.43 651.58 316.02 646.98 C 286.62 642.37 249.27 637.37 222.08 625.92 C 194.88 614.47 178.91 595.83 157.00 577.00
C 186.15 631.59 246.62 651.13 303.78 659.22 C 360.94 667.31 422.61 685.43 467.00 725.00 Z"/>
</g>
<g fill="#C98975" fill-opacity="1.00" stroke="None"><path d="
M 678.00 583.00 
C 676.83 581.84 676.26 579.09 678.00 578.00
C 675.38 576.99 676.57 577.90 676.01 580.99 C 675.45 584.07 677.40 582.76 678.00 583.00 Z"/>
</g>
<g fill="#951812" fill-opacity="1.00" stroke="None"><path d="
M 701.00 580.00 
C 692.46 578.70 701.49 588.46 701.00 580.00 Z"/>
</g>
<g fill="#D09841" fill-opacity="1.00" stroke="None"><path d="
M 765.00 605.00 
C 760.57 608.78 759.78 609.70 755.25 614.25 C 750.71 618.80 751.58 617.97 745.75 623.75 C 739.92 629.54 732.47 635.35 726.75 641.75 C 721.03 648.15 713.86 653.93 707.75 659.75 C 701.65 665.58 694.66 673.00 688.75 678.75 C 682.84 684.50 683.69 683.58 679.75 687.75 C 675.81 691.93 673.03 693.75 670.25 697.25 C 667.47 700.75 663.40 704.75 661.25 707.25 C 659.10 709.75 652.24 715.22 653.00 717.00
C 653.74 718.73 654.86 717.47 656.00 717.00
C 666.46 710.90 673.79 698.17 683.75 690.75 C 693.71 683.33 701.66 672.31 711.25 664.25 C 720.83 656.19 730.21 647.12 739.25 638.25 C 748.29 629.38 758.05 620.94 766.75 611.75 C 775.45 602.56 786.68 595.47 794.00 585.00
C 793.74 584.88 793.32 584.19 793.00 584.00
C 792.10 583.45 790.10 582.32 790.00 581.00
C 782.02 588.98 773.63 597.62 765.00 605.00 Z"/>
</g>
<g fill="#D7A990" fill-opacity="1.00" stroke="None"><path d="
M 629.00 582.00 
C 628.09 583.54 622.85 583.71 622.00 582.00
C 620.31 583.81 629.14 586.03 629.00 582.00 Z"/>
</g>
<g fill="#B28048" fill-opacity="1.00" stroke="None"><path d="
M 656.00 717.00 
C 670.18 711.19 679.08 694.44 691.77 685.77 C 704.46 677.10 714.22 663.20 726.25 653.25 C 738.28 643.30 748.89 631.13 760.75 620.75 C 772.62 610.37 782.99 598.06 795.00 588.00
C 795.07 587.72 795.18 585.17 795.00 585.00
C 795.00 585.00 794.16 584.77 794.00 585.00
C 786.68 595.47 775.45 602.56 766.75 611.75 C 758.05 620.94 748.29 629.38 739.25 638.25 C 730.21 647.12 720.83 656.19 711.25 664.25 C 701.66 672.31 693.71 683.33 683.75 690.75 C 673.79 698.17 666.46 710.90 656.00 717.00 Z"/>
</g>
<g fill="#FD615D" fill-opacity="1.00" stroke="None"><path d="
M 74.00 1121.00 
C 66.03 1118.06 57.57 1122.96 49.00 1121.00 C 40.43 1119.04 39.69 1132.25 41.00 1138.00 C 42.31 1143.75 37.39 1155.60 45.33 1157.67 C 53.27 1159.74 61.52 1156.80 70.00 1158.00 C 78.47 1159.20 79.19 1146.66 78.00 1141.00 C 76.81 1135.34 81.17 1123.65 74.00 1121.00 Z"/>
</g>
<g fill="#F2E5C4" fill-opacity="1.00" stroke="None"><path d="
M 72.00 1122.00 
C 65.05 1119.89 55.39 1122.44 48.08 1122.08 C 40.76 1121.71 41.65 1134.41 42.00 1139.00 C 42.35 1143.59 39.84 1155.81 47.33 1156.67 C 54.82 1157.53 63.30 1157.41 70.92 1156.92 C 78.54 1156.44 77.15 1145.14 77.00 1140.00 C 76.85 1134.86 78.60 1124.00 72.00 1122.00 Z"/>
</g>
<g fill="#FC7A70" fill-opacity="1.00" stroke="None"><path d="
M 73.00 1125.00 
C 70.18 1123.63 67.42 1127.86 70.32 1129.66 C 73.22 1131.46 75.53 1126.23 73.00 1125.00 Z"/>
</g>
<g fill="#9A2319" fill-opacity="1.00" stroke="None"><path d="
M 106.00 1149.00 
C 103.96 1141.78 105.46 1133.62 105.00 1126.00
C 103.40 1125.57 102.54 1127.37 101.00 1127.00
C 103.11 1129.17 103.29 1132.01 103.00 1135.00
C 96.22 1130.48 90.53 1140.00 92.70 1145.30 C 94.86 1150.61 103.19 1150.60 106.00 1149.00 Z"/>
</g>
<g fill="#CA8C78" fill-opacity="1.00" stroke="None"><path d="
M 106.00 1149.00 
C 107.77 1147.99 106.12 1142.56 106.00 1139.00 C 105.88 1135.44 107.64 1127.89 105.00 1126.00
C 105.46 1133.62 103.96 1141.78 106.00 1149.00 Z"/>
</g>
<g fill="#9E2820" fill-opacity="1.00" stroke="None"><path d="
M 114.00 1126.00 
C 107.86 1126.31 114.77 1132.08 114.00 1126.00 Z"/>
</g>
<g fill="#FB786E" fill-opacity="1.00" stroke="None"><path d="
M 75.00 1135.00 
C 67.89 1137.26 65.44 1129.86 59.00 1130.00 C 52.57 1130.14 51.16 1137.14 44.00 1135.00
C 41.23 1149.56 46.18 1155.35 60.00 1155.00 C 73.82 1154.65 77.03 1149.09 75.00 1135.00 Z"/>
</g>
<g fill="#F2E6C4" fill-opacity="1.00" stroke="None"><path d="
M 63.00 1132.00 
C 53.58 1128.33 47.86 1141.12 56.33 1145.67 C 64.79 1150.22 71.22 1135.21 63.00 1132.00 Z"/>
</g>
<g fill="#920B07" fill-opacity="1.00" stroke="None"><path d="
M 111.00 1137.00 
C 110.91 1140.02 113.81 1145.62 111.00 1149.00
C 112.33 1149.00 113.67 1149.00 115.00 1149.00
C 112.89 1144.47 114.51 1138.96 114.00 1134.00
C 110.65 1133.82 111.23 1135.48 111.00 1137.00 Z"/>
</g>
<g fill="#9A2218" fill-opacity="1.00" stroke="None"><path d="
M 120.00 1148.00 
C 120.80 1149.11 123.35 1149.74 124.00 1148.00
C 123.61 1145.40 123.39 1129.84 129.00 1138.00
C 130.85 1140.69 130.36 1145.94 129.00 1149.00
C 130.33 1149.00 131.67 1149.00 133.00 1149.00
C 133.66 1146.83 130.18 1141.79 132.10 1139.10 C 134.02 1136.41 136.26 1135.38 138.00 1138.00
C 139.81 1140.72 139.38 1145.92 138.00 1149.00
C 144.50 1150.50 139.48 1141.82 141.00 1138.00
C 140.67 1132.66 134.35 1133.56 132.00 1137.00
C 128.21 1131.59 122.75 1136.19 118.00 1135.00
C 121.30 1137.71 119.98 1143.69 120.00 1148.00 Z"/>
</g>
<g fill="#A3362A" fill-opacity="1.00" stroke="None"><path d="
M 155.00 1139.00 
C 157.78 1131.88 146.08 1132.61 146.03 1137.97 C 145.97 1143.33 153.98 1142.40 153.00 1148.00
C 149.98 1148.57 147.27 1147.61 146.00 1145.00
C 143.92 1156.21 162.67 1146.01 154.23 1141.77 C 145.79 1137.53 149.31 1132.52 155.00 1139.00 Z"/>
</g>
<g fill="#9E2A20" fill-opacity="1.00" stroke="None"><path d="
M 172.00 1148.00 
C 167.73 1145.61 171.88 1138.48 168.74 1135.26 C 165.61 1132.03 159.23 1134.39 160.00 1139.00
C 161.83 1136.02 167.94 1132.54 167.00 1140.00
C 162.35 1137.91 156.23 1147.44 160.78 1149.22 C 165.32 1150.99 168.09 1148.62 172.00 1148.00 Z"/>
</g>
<g fill="#A3362A" fill-opacity="1.00" stroke="None"><path d="
M 180.00 1135.00 
C 178.62 1132.86 175.19 1134.53 173.00 1134.00
C 177.01 1138.60 179.20 1144.37 181.00 1150.00
C 182.91 1146.29 192.30 1133.85 185.00 1134.00
C 187.11 1137.62 184.13 1142.15 182.00 1145.00
C 181.88 1141.68 177.52 1137.85 180.00 1135.00 Z"/>
</g>
<g fill="#A4392C" fill-opacity="1.00" stroke="None"><path d="
M 201.00 1148.00 
C 200.78 1148.38 201.00 1149.00 201.00 1149.00
C 209.68 1147.23 205.24 1130.45 197.00 1135.00
C 202.97 1135.08 203.28 1144.01 201.00 1148.00 Z"/>
</g>
<g fill="#9D281F" fill-opacity="1.00" stroke="None"><path d="
M 209.00 1149.00 
C 210.50 1148.42 213.28 1150.07 214.00 1148.00
C 211.50 1143.68 212.29 1135.58 219.00 1136.00
C 215.49 1132.85 212.47 1135.63 208.00 1135.00
C 213.15 1137.40 207.96 1145.58 209.00 1149.00 Z"/>
</g>
<g fill="#EBD8B8" fill-opacity="1.00" stroke="None"><path d="
M 101.00 1135.00 
C 96.03 1132.97 91.99 1144.35 97.78 1147.22 C 103.56 1150.09 105.43 1136.81 101.00 1135.00 Z"/>
</g>
<g fill="#9E2D21" fill-opacity="1.00" stroke="None"><path d="
M 196.00 1149.00 
C 197.15 1149.90 194.99 1145.98 195.00 1146.00
C 194.85 1142.07 192.93 1138.37 196.00 1135.00
C 189.14 1137.10 189.78 1146.60 196.00 1149.00 Z"/>
</g>
<g fill="#F2E5C3" fill-opacity="1.00" stroke="None"><path d="
M 68.00 1136.00 
C 69.77 1142.58 65.68 1148.13 58.07 1147.93 C 50.47 1147.73 51.95 1135.94 46.00 1136.00
C 45.76 1140.59 44.52 1152.84 51.00 1153.00 C 57.48 1153.16 66.72 1154.50 71.25 1151.25 C 75.77 1147.99 74.36 1133.62 68.00 1136.00 Z"/>
</g>
<g fill="#C17664" fill-opacity="1.00" stroke="None"><path d="
M 115.00 1149.00 
C 113.67 1149.00 112.33 1149.00 111.00 1149.00
C 113.81 1145.62 110.91 1140.02 111.00 1137.00
C 110.50 1141.36 112.44 1146.61 109.00 1150.00
C 111.33 1149.51 115.39 1151.03 115.00 1149.00 Z"/>
</g>
<g fill="#C37967" fill-opacity="1.00" stroke="None"><path d="
M 133.00 1149.00 
C 131.67 1149.00 130.33 1149.00 129.00 1149.00
C 130.36 1145.94 130.85 1140.69 129.00 1138.00
C 129.07 1142.32 129.55 1147.06 127.00 1150.00
C 129.33 1149.51 133.39 1151.03 133.00 1149.00 Z"/>
</g>
<g fill="#CB8D78" fill-opacity="1.00" stroke="None"><path d="
M 141.00 1138.00 
C 139.48 1141.82 144.50 1150.50 138.00 1149.00
C 139.38 1145.92 139.81 1140.72 138.00 1138.00
C 137.42 1141.63 139.56 1146.93 136.00 1149.00
C 137.70 1151.19 141.48 1149.44 144.00 1150.00
C 140.95 1146.71 142.48 1141.63 141.00 1138.00 Z"/>
</g>
<g fill="#ECD9B9" fill-opacity="1.00" stroke="None"><path d="
M 167.00 1141.00 
C 155.58 1142.98 169.17 1153.56 167.00 1141.00 Z"/>
</g>
<g fill="#BC6958" fill-opacity="1.00" stroke="None"><path d="
M 196.00 1149.00 
C 197.51 1149.58 199.45 1151.00 201.00 1149.00
C 201.00 1149.00 200.78 1148.38 201.00 1148.00
C 198.95 1148.03 196.29 1147.90 195.00 1146.00
C 194.99 1145.98 197.15 1149.90 196.00 1149.00 Z"/>
</g>
<g fill="#C5806D" fill-opacity="1.00" stroke="None"><path d="
M 124.00 1148.00 
C 123.35 1149.74 120.80 1149.11 120.00 1148.00
C 115.41 1150.88 124.07 1149.87 126.00 1150.00
C 126.46 1148.88 124.08 1148.52 124.00 1148.00 Z"/>
</g>
<g fill="#C6826F" fill-opacity="1.00" stroke="None"><path d="
M 209.00 1149.00 
C 207.68 1150.97 214.28 1149.59 216.00 1150.00
C 216.46 1148.88 214.08 1148.52 214.00 1148.00
C 213.28 1150.07 210.50 1148.42 209.00 1149.00 Z"/>
</g>
</svg>